<svg id="图层_1" data-name="图层 1" xmlns="http://www.w3.org/2000/svg" viewBox="0 0 200 200"><defs><style>.cls-1{fill:none;}.cls-2{fill:#cb5aff;}</style></defs><path class="cls-1" d="M25,140.32V96.85h0v43.47a22.58,22.58,0,0,0,10,18.74A22.58,22.58,0,0,1,25,140.32Z"/><path class="cls-1" d="M112.32,92.21h13.39a4.49,4.49,0,0,1-.3-2.91,3.65,3.65,0,0,0,.11-.83V83.13a3.2,3.2,0,0,0-3.2-3.2h-45a3.21,3.21,0,0,0-3.21,3.2v5.34a3.2,3.2,0,0,0,.12.83,4.49,4.49,0,0,1-.31,2.91h13.4a4.63,4.63,0,0,1,4.63,4.64v18a3.21,3.21,0,0,0,3.21,3.21h9.37a3.21,3.21,0,0,0,3.21-3.21V97a.38.38,0,0,1,0-.1A4.64,4.64,0,0,1,112.32,92.21Z"/><path class="cls-1" d="M25,60.9A22.58,22.58,0,0,1,35,42.16,22.58,22.58,0,0,0,25,60.9V90.49h0Z"/><path class="cls-1" d="M130.15,83.13a7.85,7.85,0,0,0-3.45-6.5,7.85,7.85,0,0,1,3.45,6.5v5.34a8.45,8.45,0,0,1-.13,1,8.45,8.45,0,0,0,.13-1Z"/><path class="cls-1" d="M69.43,88.47a6.82,6.82,0,0,0,.14,1,6.82,6.82,0,0,1-.14-1V83.13a7.82,7.82,0,0,1,2.3-5.54,7.82,7.82,0,0,0-2.3,5.54Z"/><path class="cls-1" d="M126.7,76.63a7.84,7.84,0,0,0-2.8-1.18A7.84,7.84,0,0,1,126.7,76.63Z"/><path d="M152.3,167.55a27.27,27.27,0,0,0,27.23-27.23V96.85a4.59,4.59,0,0,0-1.29-3.18,4.61,4.61,0,0,0,1.29-3.18V60.9A27.26,27.26,0,0,0,152.3,33.67H47.64A27.25,27.25,0,0,0,20.41,60.9V90.49a4.61,4.61,0,0,0,1.29,3.18,4.59,4.59,0,0,0-1.29,3.18v43.47a27.26,27.26,0,0,0,27.23,27.23ZM25,60.9a22.59,22.59,0,0,1,22.6-22.6H152.3a22.59,22.59,0,0,1,22.6,22.6V90.49h-45a8.75,8.75,0,0,0,.14-1,8.45,8.45,0,0,0,.13-1V83.13a7.83,7.83,0,0,0-6.25-7.68,8.22,8.22,0,0,0-1.58-.16h-45a7.85,7.85,0,0,0-7.84,7.84v5.34a6.82,6.82,0,0,0,.14,1c.05.33.05.68.13,1H25ZM107.69,97v17.92a3.21,3.21,0,0,1-3.21,3.21H95.11a3.21,3.21,0,0,1-3.21-3.21v-18a4.63,4.63,0,0,0-4.63-4.64H73.87a4.49,4.49,0,0,0,.31-2.91,3.2,3.2,0,0,1-.12-.83V83.13a3.21,3.21,0,0,1,3.21-3.2h45.05a3.2,3.2,0,0,1,3.2,3.2v5.34a3.65,3.65,0,0,1-.11.83,4.49,4.49,0,0,0,.3,2.91H112.32a4.64,4.64,0,0,0-4.64,4.64A.38.38,0,0,0,107.69,97ZM25,140.32V96.85H87.27v18a7.83,7.83,0,0,0,4.79,7.22,7.73,7.73,0,0,0,3,.62h9.37a7.85,7.85,0,0,0,7.84-7.84v-18H174.9v43.47a22.6,22.6,0,0,1-22.6,22.6H47.64A22.59,22.59,0,0,1,25,140.32Z"/><path d="M69.7,90.49c-.08-.33-.08-.68-.13-1,.05.33.05.68.13,1Z"/><path d="M174.9,90.49h0V60.9A22.49,22.49,0,0,0,171,48.26,22.49,22.49,0,0,1,174.9,60.9Z"/><path d="M129.88,90.49h0a8.75,8.75,0,0,0,.14-1A8.75,8.75,0,0,1,129.88,90.49Z"/><path d="M171,153a22.44,22.44,0,0,0,3.86-12.63V96.85h0v43.47A22.44,22.44,0,0,1,171,153Z"/><path d="M87.27,114.87a7.83,7.83,0,0,0,4.79,7.22,7.83,7.83,0,0,1-4.79-7.22v-18h0Z"/><path d="M112.32,114.87v-18h0v18a7.82,7.82,0,0,1-3.46,6.5A7.82,7.82,0,0,0,112.32,114.87Z"/><path class="cls-2" d="M152.3,38.3H47.64A22.59,22.59,0,0,0,25,60.9V90.49H69.7c-.08-.33-.08-.68-.13-1a6.82,6.82,0,0,1-.14-1V83.13a7.85,7.85,0,0,1,7.84-7.84h45.05a8.22,8.22,0,0,1,1.58.16,7.83,7.83,0,0,1,6.25,7.68v5.34a8.45,8.45,0,0,1-.13,1,8.75,8.75,0,0,1-.14,1h45V60.9a22.59,22.59,0,0,0-22.6-22.6Z"/><path class="cls-2" d="M112.32,96.86v18a7.85,7.85,0,0,1-7.84,7.84H95.11a7.73,7.73,0,0,1-3-.62,7.83,7.83,0,0,1-4.79-7.22v-18H25v43.47a22.59,22.59,0,0,0,22.6,22.6H152.3a22.6,22.6,0,0,0,22.6-22.6V96.85H112.32Z"/></svg>