<svg id="图层_1" data-name="图层 1" xmlns="http://www.w3.org/2000/svg" viewBox="0 0 200 200"><defs><style>.cls-1{fill:#ff4080;}</style></defs><path class="cls-1" d="M130.65,70.38a5.69,5.69,0,0,1,1.25-.66,5.45,5.45,0,0,1,1.95-.36c2.49,0,4.79,1.71,7.2,3.49a34.2,34.2,0,0,0,8,4.8,30.27,30.27,0,0,0,9,1.6c9.13.26,17.2-8.6,21.85-15.08a28.71,28.71,0,0,1-18.37-.2c-3.29-1.15-5.82-3.72-8.26-6.21-4.57-4.67-6.77-6.56-11.11-2.59A33.1,33.1,0,0,0,134,66.78a2.24,2.24,0,0,1-2.26,1.4,2.28,2.28,0,0,1-2-1.72c-.56-2.25-1-4.55-1.33-6.84a61,61,0,0,0-1.8-8.41c-3-9.68-11.66-14.59-18.36-17-12-4.32-24.85-5.63-34.46-3.49-6.26,1.38-11.89,4.49-17.84,7.77-1.72.95-3.45,1.9-5.18,2.81-5.07,2.64-7.57,4.45-8.57,9.59C40.26,60.46,43.17,69,46.62,76.22c7.6-2.92,35.79-12,82.75-6.43A2.24,2.24,0,0,1,130.65,70.38Z"/><path class="cls-1" d="M171.88,115.88l16-17.74-2-2.5c-2.32,2.29-7.34,6.57-18.52,14.93a2.26,2.26,0,0,1-3.14-.42,106.45,106.45,0,0,1-10.72-16.59,19.56,19.56,0,0,0-1.85,4.63,20.32,20.32,0,0,0,.52,11.13,2.27,2.27,0,0,1-3.38,2.59,127.84,127.84,0,0,1-13.11-9.38C128.78,97,127,94.31,126,91.37c-2.54-7.44.54-14.46,1.55-16.44l.21-.42c-5.66.67-11.13,1.19-16.43,1.7-21.6,2.06-40.33,3.84-56,15.07l.57,2.25a2.23,2.23,0,0,1,0,1.28L51.42,108l8.4,2.31a2.28,2.28,0,0,1,1.66,2.36l-.14,1.91,2.48,1.24A2.32,2.32,0,0,1,64.91,117l1.16,2.88,2.92.55a2.26,2.26,0,0,1,1.62,1.23l6,12.22c3.7-2.67,11.16-8.05,15.13-10.88a2.26,2.26,0,0,1,2.82.14A119.39,119.39,0,0,1,106,134.75l.94,1.17a2.26,2.26,0,0,1,.4,2.11,2.23,2.23,0,0,1-1.54,1.5C67.62,150.45,30.11,141,8.47,133c9.81,22.13,22.75,33.37,32.18,39,14.49,8.61,47.46,8.37,122.26-41.7a2.27,2.27,0,0,1,2.85.26c6.31,6.16,12.63,8.69,18.85,7.51a19.06,19.06,0,0,0,7.72-3.48A95.29,95.29,0,0,1,172,119,2.28,2.28,0,0,1,171.88,115.88Zm-18.7,1.29a2.2,2.2,0,0,1-1.23.36A2.27,2.27,0,0,1,150,114.1a2.28,2.28,0,1,1,3.18,3.07Z"/><path d="M152,115.26h0v0Z"/><path d="M152,113a2.28,2.28,0,0,0-1.61,4,2.24,2.24,0,0,0,1.52.58,2.2,2.2,0,0,0,1.23-.36A2.27,2.27,0,0,0,152,113Zm-.09,2.28,0,0v0Z"/><path d="M198.6,133.85a2.27,2.27,0,0,0-1.21-1.71,89.66,89.66,0,0,1-20.68-14.84l15.8-17.57a2.27,2.27,0,0,0,.07-3l-5-6.11a2.24,2.24,0,0,0-2.05-.84,2.21,2.21,0,0,0-1.76,1.3c-.69,1.2-6.34,6.12-17.43,14.46a101.32,101.32,0,0,1-10.57-17.47A2.29,2.29,0,0,0,154,86.83a2.26,2.26,0,0,0-2,.83,24.32,24.32,0,0,0-4.8,9.42,22.88,22.88,0,0,0-.57,8c-3.48-2.39-6.23-4.53-8.12-6.08-6.56-5.37-7.63-7.38-8.23-9.12-2-5.9.74-11.79,1.31-12.91,1-1.91,1.45-2.83,1.95-3,.94-.36,2.75,1,4.84,2.53a38.46,38.46,0,0,0,9,5.38,34.47,34.47,0,0,0,10.5,1.91c15.7.49,27.82-19.78,30-23.85a2.27,2.27,0,0,0-3.23-3c-2.42,1.57-11.12,6.43-21.71,2.73-2.28-.8-4.43-3-6.5-5.1-4.08-4.16-9.67-9.86-17.43-2.76a38.18,38.18,0,0,0-6.2,7.35c0-.1,0-.2,0-.3a67.07,67.07,0,0,0-2-9c-2.8-8.94-10.31-16-21.15-19.92-12.74-4.6-26.57-6-37-3.65-6.89,1.53-13.07,4.94-19,8.23-1.69.94-3.38,1.87-5.08,2.76C43.26,40.05,39.07,42.75,37.66,50c-2.29,11.75,1.66,21.82,5.82,30.12a2.28,2.28,0,0,0,3,1c.23-.11,19.23-8.58,54.4-8.58h.53c-18.88,2-35.5,4.92-50,15.94a2.25,2.25,0,0,0-.82,2.37L51.32,94l-5,14.8a2.27,2.27,0,0,0,1.55,2.91l8.91,2.46-.12,1.56a2.29,2.29,0,0,0,1.25,2.2L61,119.48l1.3,3.23A2.27,2.27,0,0,0,64,124.09l3,.57,6.67,13.62a2.25,2.25,0,0,0,1.49,1.2,2.29,2.29,0,0,0,1.88-.36s10-7.21,15.8-11.39a115.86,115.86,0,0,1,8.22,8.36c-38.77,9.85-76.54-1.43-95.92-9.21a2.27,2.27,0,0,0-3,2.94c10.47,26.56,25.42,39.71,36.12,46.06q8.36,5,20.31,5c24.25,0,59.51-15.32,105.29-45.79,6.95,6.24,14.36,8.81,21.52,7.46a25.07,25.07,0,0,0,12.45-6.69A2.28,2.28,0,0,0,198.6,133.85Zm-32.84-3.32a2.27,2.27,0,0,0-2.85-.26C88.11,180.34,55.14,180.58,40.65,172c-9.43-5.59-22.37-16.83-32.18-39,21.64,8,59.15,17.44,97.28,6.53a2.28,2.28,0,0,0,1.14-3.62l-.94-1.17a119.39,119.39,0,0,0-11.41-11.63,2.26,2.26,0,0,0-2.82-.14c-4,2.83-11.43,8.21-15.13,10.88l-6-12.22A2.26,2.26,0,0,0,69,120.41l-2.92-.55L64.91,117a2.32,2.32,0,0,0-1.09-1.18l-2.48-1.24.14-1.91a2.28,2.28,0,0,0-1.66-2.36L51.42,108l4.42-13.17a2.23,2.23,0,0,0,0-1.28l-.57-2.25c15.64-11.23,34.37-13,56-15.07,5.3-.51,10.77-1,16.43-1.7l-.21.42c-1,2-4.09,9-1.55,16.44,1,2.94,2.83,5.59,9.64,11.16a127.84,127.84,0,0,0,13.11,9.38,2.27,2.27,0,0,0,3.38-2.59,20.32,20.32,0,0,1-.52-11.13,19.56,19.56,0,0,1,1.85-4.63,106.45,106.45,0,0,0,10.72,16.59,2.26,2.26,0,0,0,3.14.42c11.18-8.36,16.2-12.64,18.52-14.93l2,2.5-16,17.74A2.28,2.28,0,0,0,172,119a95.29,95.29,0,0,0,20.37,15.55,19.06,19.06,0,0,1-7.72,3.48C178.39,139.22,172.07,136.69,165.76,130.53ZM42.11,50.89c1-5.14,3.5-7,8.57-9.59,1.73-.91,3.46-1.86,5.18-2.81,6-3.28,11.58-6.39,17.84-7.77,9.61-2.14,22.5-.83,34.46,3.49,6.7,2.41,15.32,7.32,18.36,17a61,61,0,0,1,1.8,8.41c.38,2.29.77,4.59,1.33,6.84a2.28,2.28,0,0,0,2,1.72,2.24,2.24,0,0,0,2.26-1.4,33.1,33.1,0,0,1,8.17-11.61c4.34-4,6.54-2.08,11.11,2.59,2.44,2.49,5,5.06,8.26,6.21a28.71,28.71,0,0,0,18.37.2c-4.65,6.48-12.72,15.34-21.85,15.08a30.27,30.27,0,0,1-9-1.6,34.2,34.2,0,0,1-8-4.8c-2.41-1.78-4.71-3.49-7.2-3.49a5.45,5.45,0,0,0-1.95.36,5.69,5.69,0,0,0-1.25.66,2.24,2.24,0,0,0-1.28-.59c-47-5.52-75.15,3.51-82.75,6.43C43.17,69,40.26,60.46,42.11,50.89Z"/></svg>