<svg id="图层_1" data-name="图层 1" xmlns="http://www.w3.org/2000/svg" viewBox="0 0 200 200"><defs><style>.cls-1{fill:none;}.cls-2{fill:#08fff8;}</style></defs><path class="cls-1" d="M50.57,158.78a10.83,10.83,0,0,0-2.35.92A10.83,10.83,0,0,1,50.57,158.78Z"/><path class="cls-1" d="M55.27,158.6c-.24,0-.49,0-.73-.07C54.78,158.56,55,158.56,55.27,158.6Z"/><path class="cls-1" d="M101.37,116.52a16,16,0,0,0-2.77,1.25A16,16,0,0,1,101.37,116.52Z"/><path class="cls-1" d="M77.67,135c-.42-.16-.86-.26-1.29-.38C76.81,134.77,77.25,134.87,77.67,135Z"/><path class="cls-1" d="M40.92,41.43a17.84,17.84,0,0,0,1.76.85A17.84,17.84,0,0,1,40.92,41.43Z"/><path class="cls-1" d="M39,40.23c.48.34,1,.66,1.55,1C40,40.89,39.45,40.56,39,40.23Z"/><path class="cls-1" d="M88.15,129.12c-.59,1-1.16,2-1.69,3C87,131.15,87.56,130.13,88.15,129.12Z"/><path class="cls-1" d="M42.81,42.32a12.39,12.39,0,0,0,1.73.55A12,12,0,0,1,42.81,42.32Z"/><path class="cls-1" d="M92.65,122.79a40.51,40.51,0,0,0-4.14,5.74A41.09,41.09,0,0,1,92.65,122.79Z"/><path class="cls-1" d="M98.17,118a19.3,19.3,0,0,0-2.71,2A19.3,19.3,0,0,1,98.17,118Z"/><path class="cls-1" d="M86.46,132.18c-.52,1-1,2-1.44,3C85.47,134.2,85.94,133.19,86.46,132.18Z"/><path class="cls-1" d="M84.7,135.89c-.42,1-.83,1.92-1.19,2.82C83.87,137.81,84.28,136.86,84.7,135.89Z"/><path class="cls-1" d="M100.9,78.14l.68-8.36-1.7.85a4.77,4.77,0,0,1-1.34.43l-4.67.75,1.39,6,7.3,8L101,79.63A4.65,4.65,0,0,1,100.9,78.14Z"/><path class="cls-1" d="M74.31,134.15c-.47-.07-.94-.1-1.41-.14C73.37,134.05,73.84,134.08,74.31,134.15Z"/><path class="cls-1" d="M51.39,158.65a11.87,11.87,0,0,1,1.68-.21A11.87,11.87,0,0,0,51.39,158.65Z"/><path class="cls-1" d="M46.88,43.2A10.15,10.15,0,0,1,45,43,10.15,10.15,0,0,0,46.88,43.2Z"/><path class="cls-1" d="M161,29.4a22.36,22.36,0,0,1,3-.18A22.36,22.36,0,0,0,161,29.4Z"/><path class="cls-1" d="M71.79,93.89,71,98.56a4.77,4.77,0,0,1-.43,1.34l-.86,1.7,8.37-.68h.38a4.61,4.61,0,0,1,1.11.13l6.2,1.54-8-7.3Z"/><path class="cls-1" d="M47.74,43.14l.46,0Z"/><path class="cls-1" d="M93,122.38A25.74,25.74,0,0,1,95.43,120,25.74,25.74,0,0,0,93,122.38Z"/><path class="cls-1" d="M105.49,24.29c2.24-.37,4.49-.71,6.75-1C110,23.58,107.73,23.92,105.49,24.29Z"/><path class="cls-1" d="M116.66,98.85A31.6,31.6,0,0,1,121,90.23a31.6,31.6,0,0,0-4.34,8.62Z"/><path class="cls-1" d="M116,22.92q3.17-.32,6.33-.46Q119.12,22.61,116,22.92Z"/><path class="cls-1" d="M92.66,26.87c3.22-.78,6.46-1.46,9.72-2.07C99.12,25.41,95.88,26.09,92.66,26.87Z"/><path class="cls-1" d="M128.46,22.24c-.79,0-1.57.06-2.36.08,3-.06,6-.07,9.05.1Q131.8,22.24,128.46,22.24Z"/><path class="cls-1" d="M167.78,29.47c-1.15-.13-2.31-.22-3.47-.24C165.47,29.25,166.63,29.34,167.78,29.47Z"/><path class="cls-1" d="M172.39,30.19c-1.19-.23-2.4-.43-3.61-.59C170,29.76,171.2,30,172.39,30.19Z"/><path class="cls-1" d="M80.78,136.57c-.32-.21-.68-.35-1-.53C80.1,136.22,80.46,136.37,80.78,136.57Z"/><path class="cls-1" d="M111.46,116.94c.13,0,.24.06.37.11-.13,0-.25-.07-.37-.12Z"/><path class="cls-1" d="M161.93,168.61a5.14,5.14,0,0,1,.32,1.22A5.14,5.14,0,0,0,161.93,168.61Z"/><path class="cls-1" d="M159.78,165.47a10.17,10.17,0,0,1,1.16,1.37A10.17,10.17,0,0,0,159.78,165.47Z"/><path class="cls-1" d="M162.25,169.93a2.53,2.53,0,0,1-.08.89A2.53,2.53,0,0,0,162.25,169.93Z"/><path class="cls-1" d="M160.63,171.92a1.82,1.82,0,0,0,.88-.22,1.78,1.78,0,0,1-.93.21Z"/><path class="cls-1" d="M159.58,171.69a4.07,4.07,0,0,1-.53-.13A4.07,4.07,0,0,0,159.58,171.69Z"/><path class="cls-1" d="M162.07,171.06a1.47,1.47,0,0,1-.39.5A1.47,1.47,0,0,0,162.07,171.06Z"/><path class="cls-1" d="M161.21,167.24a7.89,7.89,0,0,1,.56,1A8.63,8.63,0,0,0,161.21,167.24Z"/><path class="cls-1" d="M114.85,137.39c-.38-1-.78-2-1.17-3C114.07,135.35,114.47,136.35,114.85,137.39Z"/><path class="cls-1" d="M108.81,120.94h0c.81.85,1.71,1.69,2.65,2.52C110.52,122.63,109.62,121.79,108.81,120.94Z"/><path class="cls-1" d="M109.89,125.31c-.73-1.63-1.45-3.18-2.19-4.68C108.43,122.12,109.16,123.7,109.89,125.31Z"/><path class="cls-1" d="M112.34,131c-.57-1.39-1.14-2.71-1.73-4C111.19,128.23,111.77,129.57,112.34,131Z"/><path class="cls-1" d="M117.34,128.37l.82.68C117.89,128.83,117.62,128.59,117.34,128.37Z"/><path class="cls-1" d="M157,170.46c-.6-.4-1.2-.82-1.81-1.26C155.82,169.64,156.42,170.06,157,170.46Z"/><path class="cls-1" d="M112.12,124.05c1,.85,2,1.68,3,2.5C114.11,125.73,113.1,124.9,112.12,124.05Z"/><path class="cls-1" d="M151.53,166.64l-.79-.49Z"/><path class="cls-1" d="M149.58,165.44l-.85-.46Z"/><path class="cls-1" d="M153.42,167.94l-.63-.44Z"/><path class="cls-1" d="M145.5,163.58c-.31-.1-.64-.17-1-.25C144.86,163.41,145.19,163.48,145.5,163.58Z"/><path class="cls-1" d="M147.57,164.39c-.3-.14-.6-.25-.9-.37Z"/><path class="cls-1" d="M143.36,163.08c-.34-.05-.67-.07-1-.09C142.69,163,143,163,143.36,163.08Z"/><path class="cls-1" d="M170.3,115.23c-.92,0-1.83.09-2.76.09C168.47,115.32,169.38,115.27,170.3,115.23Z"/><path class="cls-1" d="M175.72,156.83a2.29,2.29,0,0,1,0,.7A2.29,2.29,0,0,0,175.72,156.83Z"/><path class="cls-1" d="M175.14,154.75a8.67,8.67,0,0,1,.56,1.69A8.67,8.67,0,0,0,175.14,154.75Z"/><path class="cls-1" d="M171.67,115.17c1.37-.09,2.71-.24,4-.44C174.38,114.93,173,115.08,171.67,115.17Z"/><path class="cls-1" d="M171.45,156.87l-.39-.25Z"/><path class="cls-1" d="M173.92,158.09a4,4,0,0,1-.46-.13A4,4,0,0,0,173.92,158.09Z"/><path class="cls-1" d="M172.72,157.62l-.46-.22Z"/><path class="cls-1" d="M123.47,121.41c-1.55-3.8-4.18-7.41-5.85-11.42C119.29,114,121.92,117.61,123.47,121.41Z"/><path class="cls-1" d="M175.55,157.79a.79.79,0,0,1-.27.3A.79.79,0,0,0,175.55,157.79Z"/><path class="cls-1" d="M174.7,158.25c.11,0,.18-.06.27-.07a2.08,2.08,0,0,1-.44,0A1,1,0,0,0,174.7,158.25Z"/><path class="cls-1" d="M120.94,104.86h0c1.45.6,3,1.19,4.51,1.79C123.9,106.06,122.38,105.46,120.94,104.86Z"/><path class="cls-1" d="M155.48,114.46c1.74.23,3.49.42,5.23.56C159,114.88,157.22,114.69,155.48,114.46Z"/><path class="cls-1" d="M150.18,113.59c1.56.29,3.14.55,4.73.78C153.32,114.14,151.74,113.88,150.18,113.59Z"/><path class="cls-1" d="M162.06,115.12c1.52.1,3,.17,4.53.18C165.09,115.29,163.58,115.22,162.06,115.12Z"/><path class="cls-1" d="M134.2,109.66c1,.3,1.91.61,2.9.9C136.11,110.27,135.16,110,134.2,109.66Z"/><path class="cls-1" d="M127,107.24c1.27.47,2.54.92,3.86,1.37C129.59,108.16,128.3,107.71,127,107.24Z"/><path class="cls-1" d="M143.91,112.32c1.61.36,3.26.7,4.94,1C147.18,113,145.51,112.68,143.91,112.32Z"/><path d="M140.71,163a9.93,9.93,0,0,1,1.64,0c-.27,0-.53-.08-.8-.08A7.87,7.87,0,0,0,140.71,163Z"/><path d="M118.16,129.05c.89.74,1.73,1.46,2.43,2.13C119.89,130.51,119.05,129.79,118.16,129.05Z"/><path d="M150.74,166.15c-.38-.24-.77-.49-1.16-.71C150,165.66,150.36,165.91,150.74,166.15Z"/><path d="M155.21,169.2l-1.79-1.26Z"/><path d="M148.73,165c-.38-.2-.77-.41-1.16-.59C148,164.57,148.35,164.78,148.73,165Z"/><path d="M152.79,167.5l-1.26-.86Z"/><path d="M115.1,126.55l2.24,1.82Z"/><path d="M117.26,144.49c-.76-2.44-1.57-4.8-2.41-7.1C115.69,139.7,116.5,142.06,117.26,144.49Z"/><path d="M113.68,134.34c-.44-1.14-.88-2.29-1.34-3.39C112.8,132.05,113.24,133.2,113.68,134.34Z"/><path d="M144.54,163.33a11.78,11.78,0,0,0-1.18-.25A11.78,11.78,0,0,1,144.54,163.33Z"/><path d="M159.05,171.56a11,11,0,0,1-2-1.1A11,11,0,0,0,159.05,171.56Z"/><path d="M162.25,169.83a.33.33,0,0,1,0,.1A.33.33,0,0,0,162.25,169.83Z"/><path d="M161.77,168.25l.16.36Z"/><path d="M160.58,171.91a4.23,4.23,0,0,1-1-.22A4.23,4.23,0,0,0,160.58,171.91Z"/><path d="M162.17,170.82c0,.09-.07.16-.1.24A1.73,1.73,0,0,0,162.17,170.82Z"/><path d="M161.68,171.56l-.17.14Z"/><path d="M146.67,164c-.39-.16-.77-.31-1.17-.44C145.9,163.71,146.28,163.86,146.67,164Z"/><path d="M111.46,123.46l.66.59Z"/><path d="M160.94,166.84l.27.4Z"/><path d="M110.61,126.92c-.24-.54-.47-1.08-.72-1.61C110.14,125.84,110.37,126.38,110.61,126.92Z"/><path d="M130.9,108.61c1.08.37,2.19.71,3.3,1C133.09,109.32,132,109,130.9,108.61Z"/><path d="M125.45,106.65l1.59.59Z"/><path d="M173.46,158a6.87,6.87,0,0,1-.74-.34A7.89,7.89,0,0,0,173.46,158Z"/><path d="M172.26,157.4c-.28-.16-.54-.34-.81-.53C171.72,157.06,172,157.24,172.26,157.4Z"/><path d="M171.06,156.62a10.53,10.53,0,0,1-1.06-.88A10.53,10.53,0,0,0,171.06,156.62Z"/><path d="M160.71,115l1.35.1Z"/><path d="M179.39,152.91c-1.48-3.43-3.94-6-6.11-8.22a28.41,28.41,0,0,1-3.66-4.3c-2.65-4.19-4-10.5,9.16-22.19a4.64,4.64,0,0,0-3.08-8.1,4.23,4.23,0,0,0-.7.06,51.59,51.59,0,0,1-7.72.54,103.23,103.23,0,0,1-22.34-2.9,140,140,0,0,1-23.77-7.87,28.33,28.33,0,0,1,3.7-7.15l.71-1.08c3.36-5.14,5.79-8.86,10.93-11.1a4.63,4.63,0,0,0,2.21-6.47c-2.18-4-4.44-8.12-5-12.31-.69-5.43,2.12-9.53,7.53-11a38.17,38.17,0,0,1,8.94-.91,4.65,4.65,0,0,0,4-2.45,4.6,4.6,0,0,0-.19-4.67c-.89-1.4-.59-3.77.68-5.39A10.41,10.41,0,0,1,161.57,34a18.87,18.87,0,0,1,2.43-.15,40.63,40.63,0,0,1,7.51.9,4.47,4.47,0,0,0,.89.08,4.63,4.63,0,0,0,1.65-8.95c-.23-.18-.48-.41-.72-.62a13.53,13.53,0,0,0-2-1.55,25.27,25.27,0,0,0-5.65-2.38,47.49,47.49,0,0,0-6.81-1.23c-1.05-.13-2.09-.26-3.11-.44a163.8,163.8,0,0,0-18.48-1.75l-1.83-.1c-2.28-.13-4.62-.2-6.95-.2a155.16,155.16,0,0,0-36.89,4.77c-6.52,1.58-13.38,3.58-21,6.1-1.27.43-2.54.9-3.82,1.37-2,.74-3.94,1.45-5.84,2-.65.17-1.34.3-2,.43a17.27,17.27,0,0,0-7.64,2.87,15.94,15.94,0,0,0-2.34,2.25,6.22,6.22,0,0,1-1.11,1.08,2.58,2.58,0,0,1-.88.14,10.35,10.35,0,0,1-5.3-2.13,4.64,4.64,0,0,0-6.34,6.62c2.54,3.28,2.94,6.53,2.59,7.47a8.68,8.68,0,0,1-.82,1.41,16.87,16.87,0,0,0-1.72,3.22,39.61,39.61,0,0,0-1.48,5.48c-.14.67-.29,1.33-.44,2a217.64,217.64,0,0,0-5.84,41.15c-.55,11.33.16,22.54.86,33.38.25,3.84.49,7.7.69,11.57.51,10.3,3.06,25.25,12.31,38a4.63,4.63,0,0,0,8.3-3.58,37.23,37.23,0,0,0-1.52-5.23,20.4,20.4,0,0,1-1.38-5.45c-.16-3.25.89-7.19,3.61-8.69a6,6,0,0,1,5.16-.26,4.63,4.63,0,0,0,5.77-6.66,12.4,12.4,0,0,1-.68-11.23,12.24,12.24,0,0,1,9.88-7,9.82,9.82,0,0,1,1.09-.06A12.49,12.49,0,0,1,80.26,142a4.65,4.65,0,0,0,3.25,1.33,4.32,4.32,0,0,0,.95-.1,4.59,4.59,0,0,0,3.35-2.82c2.12-5.31,7.48-16.84,14.89-19.46a166.36,166.36,0,0,1,9.94,24.28,53.79,53.79,0,0,0,2.16,11.7c.51,1.92,1,3.74,1.3,5.41.63,3.27,1.22,6.55,1.8,9.82l.9,5a4.67,4.67,0,0,0,2,3,4.61,4.61,0,0,0,2.54.76,4.7,4.7,0,0,0,1-.12c2.89-.67,5.48-2.57,7.7-5.63.53-.74,1-1.51,1.52-2.28a21.54,21.54,0,0,1,1.87-2.66,8.43,8.43,0,0,1,5.55-2.76h.5c3.33,0,6.86,2.51,10.28,4.93.88.63,1.76,1.25,2.62,1.83a11.22,11.22,0,0,0,6.18,2.24,6.11,6.11,0,0,0,5.79-3.78c1.28-3.16,0-7.32-3.4-10.6A34.08,34.08,0,0,0,157.6,158a32.61,32.61,0,0,1-3.48-2.51c-1.73-1.5-3.49-3-5.25-4.43-3.23-2.68-6.28-5.22-9.16-8q-8-7.62-15.91-15.26c-.81-.77-1.74-1.57-2.71-2.38l.62.23a4.72,4.72,0,0,0,1.76.35,4.62,4.62,0,0,0,4.31-6.29l1.37,1.32,14.93,14.34,10.38,10,4.88,4.69a31.4,31.4,0,0,1,3.16,3.87,36.78,36.78,0,0,0,4.32,5.17c.4.38,4.09,3.77,7.88,3.77a5.6,5.6,0,0,0,4.77-2.49C181.37,157.5,179.88,154.05,179.39,152.91Zm-42.89-6.46c4.64,4.44,9.74,8.36,14.58,12.57,2.73,2.36,6.1,3.91,8.7,6.45a10.17,10.17,0,0,1,1.16,1.37l.27.4a8.63,8.63,0,0,1,.56,1l.16.36a5.14,5.14,0,0,1,.32,1.22.33.33,0,0,1,0,.1,2.53,2.53,0,0,1-.08.89,1.73,1.73,0,0,1-.1.24,1.47,1.47,0,0,1-.39.5l-.17.14a1.82,1.82,0,0,1-.88.22h0a4.23,4.23,0,0,1-1-.22,4.07,4.07,0,0,1-.53-.13,11,11,0,0,1-2-1.1c-.6-.4-1.2-.82-1.81-1.26l-1.79-1.26-.63-.44-1.26-.86-.79-.49c-.38-.24-.77-.49-1.16-.71l-.85-.46c-.38-.2-.77-.41-1.16-.59s-.6-.25-.9-.37-.77-.31-1.17-.44-.64-.17-1-.25a11.78,11.78,0,0,0-1.18-.25c-.34-.05-.67-.07-1-.09a9.93,9.93,0,0,0-1.64,0,13,13,0,0,0-8.68,4.3c-1.42,1.62-2.41,3.55-3.67,5.29a9.13,9.13,0,0,1-5,3.84c-.9-5-1.76-9.94-2.71-14.9-1-5.33-3.39-11.58-3.39-17-.76-2.43-1.57-4.79-2.41-7.1-.38-1-.78-2-1.17-3s-.88-2.29-1.34-3.39c-.57-1.38-1.15-2.72-1.73-4-.24-.54-.47-1.08-.72-1.61-.73-1.61-1.46-3.19-2.19-4.68h0c.36.07.74.21,1.11.32.81.85,1.71,1.69,2.65,2.52l.66.59c1,.85,2,1.68,3,2.5l2.24,1.82c.28.22.55.46.82.68.89.74,1.73,1.46,2.43,2.13Zm-24.67-29.4c-.13,0-.24-.06-.37-.11h0a14.46,14.46,0,0,0-10.09-.41,16,16,0,0,0-2.77,1.25l-.43.25a19.3,19.3,0,0,0-2.71,2l0,0A25.74,25.74,0,0,0,93,122.38l-.37.41a41.09,41.09,0,0,0-4.14,5.74l-.36.59c-.59,1-1.16,2-1.69,3h0c-.52,1-1,2-1.44,3-.11.23-.21.47-.32.7-.42,1-.83,1.92-1.19,2.82a16.61,16.61,0,0,0-2.73-2.14c-.32-.2-.68-.35-1-.53a18.4,18.4,0,0,0-2.1-1c-.42-.16-.86-.26-1.29-.38a18.35,18.35,0,0,0-2.07-.5c-.47-.07-.94-.1-1.41-.14a15.9,15.9,0,0,0-2.76,0,16.67,16.67,0,0,0-12.7,25.27,10.39,10.39,0,0,0-2.17-.64c-.24,0-.49,0-.73-.07a12.08,12.08,0,0,0-1.47-.09,11.87,11.87,0,0,0-1.68.21c-.27,0-.55.06-.82.13a10.83,10.83,0,0,0-2.35.92c-4.52,2.5-6.24,8.09-6,13,.21,4.08,2.27,7.56,3,11.31-7.41-10.21-10.82-23.05-11.44-35.51C33,133.58,31.48,119,32.22,104a212.15,212.15,0,0,1,5.7-40.27,62.64,62.64,0,0,1,1.77-6.92c.65-1.73,1.87-2.9,2.52-4.61,1.13-3-.1-7.88-3.24-12,.48.33,1,.66,1.55,1l.4.22a17.84,17.84,0,0,0,1.76.85l.13,0a12,12,0,0,0,1.73.55L45,43a10.15,10.15,0,0,0,1.89.22,8.28,8.28,0,0,0,.86-.06l.46,0a6.6,6.6,0,0,0,1.3-.36c2-.78,2.91-2.7,4.56-3.94,2.3-1.74,5.38-1.81,8.06-2.53,3.36-.89,6.63-2.31,9.93-3.4,6.79-2.26,13.66-4.31,20.61-6,3.22-.78,6.46-1.46,9.72-2.07,1-.19,2.07-.33,3.11-.51,2.24-.37,4.49-.71,6.75-1,1.24-.15,2.47-.26,3.71-.38q3.17-.32,6.33-.46c1.28-.07,2.55-.12,3.82-.14.79,0,1.57-.08,2.36-.08q3.34,0,6.69.18a176.82,176.82,0,0,1,19.78,1.79c3.12.54,6.41.72,9.45,1.57a20,20,0,0,1,4.6,1.93c.91.53,2.48,2.3,3.41,2.48-1.19-.23-2.4-.43-3.61-.59l-1-.13c-1.15-.13-2.31-.22-3.47-.24h-.38a22.36,22.36,0,0,0-3,.18A15,15,0,0,0,151,34.57c-2.36,3-3,7.51-.94,10.74a42.61,42.61,0,0,0-10,1.07c-7.52,2-11.93,8.22-10.93,16,.64,5,3.1,9.53,5.51,14-6.83,3-9.79,8-13.66,13.87a31.6,31.6,0,0,0-4.34,8.62,15.6,15.6,0,0,0,0,8.63,22.32,22.32,0,0,0,1,2.51c1.67,4,4.3,7.62,5.85,11.42C119.63,119.82,115.67,118.64,111.83,117.05Zm63.88,40.48a.87.87,0,0,1-.16.26.79.79,0,0,1-.27.3,1.4,1.4,0,0,1-.31.09c-.09,0-.16.07-.27.07a1,1,0,0,1-.17,0,2.86,2.86,0,0,1-.61-.12,4,4,0,0,1-.46-.13,7.89,7.89,0,0,1-.74-.34l-.46-.22c-.28-.16-.54-.34-.81-.53l-.39-.25a10.53,10.53,0,0,1-1.06-.88c-2.84-2.69-4.63-6.3-7.46-9l-15.26-14.66-25.69-24.69c-.14-.38-.35-.75-.45-1.13a11.63,11.63,0,0,1-.2-1.39c1.44.6,3,1.2,4.51,1.79l1.59.59c1.26.47,2.55.92,3.86,1.37,1.08.36,2.19.71,3.3,1s1.91.61,2.9.9c2.22.63,4.48,1.23,6.81,1.76,1.6.36,3.27.7,4.94,1l1.33.24c1.56.29,3.14.55,4.73.78l.57.09c1.74.23,3.49.42,5.23.56l1.35.1c1.52.1,3,.17,4.53.18l.95,0c.93,0,1.84,0,2.76-.09.46,0,.92,0,1.37-.06,1.37-.09,2.71-.24,4-.44-7.85,7-16.9,17.21-10,28.14,2.71,4.29,7.43,7.21,9.44,11.88a8.67,8.67,0,0,1,.56,1.69,2.75,2.75,0,0,1,0,.39A2.29,2.29,0,0,1,175.71,157.53Z"/><path d="M167.54,115.32l-.95,0c.23,0,.46,0,.69,0Z"/><path d="M175.7,156.44a2.75,2.75,0,0,1,0,.39A2.75,2.75,0,0,0,175.7,156.44Z"/><path d="M175.55,157.79a.87.87,0,0,0,.16-.26A.87.87,0,0,1,175.55,157.79Z"/><path d="M170.3,115.23c.46,0,.92,0,1.37-.06C171.22,115.21,170.76,115.21,170.3,115.23Z"/><path d="M137.1,110.56c2.22.63,4.48,1.23,6.81,1.76C141.58,111.79,139.32,111.19,137.1,110.56Z"/><path d="M154.91,114.37l.57.09Z"/><path d="M148.85,113.35l1.33.24Z"/><path d="M174.53,158.21a2.86,2.86,0,0,1-.61-.12A2.86,2.86,0,0,0,174.53,158.21Z"/><path d="M175.28,158.09a1.4,1.4,0,0,1-.31.09A1.4,1.4,0,0,0,175.28,158.09Z"/><path d="M105.52,78.52l.92-11.42L104,63.4,97.8,66.49,88.24,68l2.78,12,13,14.19,7.1-1.54-3.1-4.3Zm-10.26-.68-1.39-6,4.67-.75a4.77,4.77,0,0,0,1.34-.43l1.7-.85-.68,8.36a4.65,4.65,0,0,0,.12,1.49l1.54,6.2Z"/><path d="M68,88.26l-1.55,9.57L63.38,104l3.7,2.46,11.42-.92L88.39,108l4.3,3.1L94.23,104,80,91ZM79.61,101a4.61,4.61,0,0,0-1.11-.13h-.38l-8.37.68.86-1.7A4.77,4.77,0,0,0,71,98.56l.75-4.67,6,1.39,8,7.3Z"/><path class="cls-2" d="M161.77,168.25a7.89,7.89,0,0,0-.56-1l-.27-.4a10.17,10.17,0,0,0-1.16-1.37c-2.6-2.54-6-4.09-8.7-6.45-4.84-4.21-9.94-8.13-14.58-12.57l-15.91-15.27c-.7-.67-1.54-1.39-2.43-2.13l-.82-.68-2.24-1.82c-1-.82-2-1.65-3-2.5l-.66-.59c-.94-.83-1.84-1.67-2.65-2.52-.37-.11-.75-.25-1.11-.32h0c.74,1.5,1.46,3.05,2.19,4.68.25.53.48,1.07.72,1.61.59,1.32,1.16,2.64,1.73,4,.46,1.1.9,2.25,1.34,3.39s.79,2,1.17,3c.84,2.3,1.65,4.66,2.41,7.1,0,5.41,2.38,11.66,3.39,17,.95,5,1.81,9.93,2.71,14.9a9.13,9.13,0,0,0,5-3.84c1.26-1.74,2.25-3.67,3.67-5.29a13,13,0,0,1,8.68-4.3,7.87,7.87,0,0,1,.84,0c.27,0,.53.06.8.08s.67,0,1,.09a11.78,11.78,0,0,1,1.18.25c.32.08.65.15,1,.25s.78.28,1.17.44.6.23.9.37.78.39,1.16.59l.85.46c.39.22.78.47,1.16.71l.79.49,1.26.86.63.44,1.79,1.26c.61.44,1.21.86,1.81,1.26a11,11,0,0,0,2,1.1,4.07,4.07,0,0,0,.53.13,4.23,4.23,0,0,0,1,.22,1.78,1.78,0,0,0,.93-.21l.17-.14a1.47,1.47,0,0,0,.39-.5c0-.08.07-.15.1-.24a2.53,2.53,0,0,0,.08-.89.33.33,0,0,0,0-.1,5.14,5.14,0,0,0-.32-1.22Z"/><path class="cls-2" d="M175.7,156.44a8.67,8.67,0,0,0-.56-1.69c-2-4.67-6.73-7.59-9.44-11.88-6.9-10.93,2.15-21.16,10-28.14-1.32.2-2.66.35-4,.44-.45,0-.91,0-1.37.06-.92,0-1.83.09-2.76.09h-.26c-.23,0-.46,0-.69,0-1.5,0-3-.08-4.53-.18l-1.35-.1c-1.74-.14-3.49-.33-5.23-.56l-.57-.09c-1.59-.23-3.17-.49-4.73-.78l-1.33-.24c-1.68-.33-3.33-.67-4.94-1-2.33-.53-4.59-1.13-6.81-1.76-1-.29-1.93-.6-2.9-.9s-2.22-.68-3.3-1c-1.32-.45-2.59-.9-3.86-1.37l-1.59-.59c-1.56-.6-3.06-1.19-4.51-1.79a11.63,11.63,0,0,0,.2,1.39c.1.38.31.75.45,1.13l25.69,24.69,15.26,14.66c2.83,2.71,4.62,6.32,7.46,9a10.53,10.53,0,0,0,1.06.88l.39.25c.27.19.53.37.81.53l.46.22a6.87,6.87,0,0,0,.74.34,4,4,0,0,0,.46.13,2.86,2.86,0,0,0,.61.12,2.08,2.08,0,0,0,.44,0,1.4,1.4,0,0,0,.31-.09.79.79,0,0,0,.27-.3.87.87,0,0,0,.16-.26,2.29,2.29,0,0,0,0-.7A2.75,2.75,0,0,0,175.7,156.44Z"/><path class="cls-2" d="M111.83,117.05c3.84,1.59,7.8,2.77,11.64,4.36-1.55-3.8-4.18-7.41-5.85-11.42h0a22.32,22.32,0,0,1-1-2.51,15.6,15.6,0,0,1,0-8.63A31.6,31.6,0,0,1,121,90.23c3.87-5.88,6.83-10.9,13.66-13.87-2.41-4.42-4.87-9-5.51-14-1-7.81,3.41-14,10.93-16a42.61,42.61,0,0,1,10-1.07c-2.06-3.23-1.42-7.72.94-10.74A15,15,0,0,1,161,29.4a22.36,22.36,0,0,1,3-.18h.38c1.16,0,2.32.11,3.47.24l1,.13c1.21.16,2.42.36,3.61.59-.93-.18-2.5-2-3.41-2.48a20,20,0,0,0-4.6-1.93c-3-.85-6.33-1-9.45-1.57a176.82,176.82,0,0,0-19.78-1.79c-3-.17-6-.16-9.05-.1-1.27,0-2.55.07-3.82.14q-3.16.15-6.33.46c-1.24.12-2.48.23-3.71.38-2.26.28-4.51.62-6.75,1-1,.18-2.08.32-3.11.51-3.26.61-6.5,1.29-9.72,2.07-7,1.69-13.82,3.74-20.61,6-3.3,1.09-6.57,2.51-9.93,3.4-2.68.72-5.76.79-8.06,2.53C52.41,40,51.51,42,49.5,42.74a6.6,6.6,0,0,1-1.3.36l-.46,0a8.28,8.28,0,0,1-.86.06A10.15,10.15,0,0,1,45,43l-.45-.11a12.39,12.39,0,0,1-1.73-.55l-.13,0a17.84,17.84,0,0,1-1.76-.85l-.4-.22c-.54-.32-1.07-.64-1.55-1,3.14,4.07,4.37,9,3.24,12-.65,1.71-1.87,2.88-2.52,4.61a62.64,62.64,0,0,0-1.77,6.92A212.15,212.15,0,0,0,32.22,104c-.74,15,.8,29.6,1.54,44.5.62,12.46,4,25.3,11.44,35.51-.71-3.75-2.77-7.23-3-11.31-.24-4.89,1.48-10.48,6-13a10.83,10.83,0,0,1,2.35-.92c.27-.07.55-.08.82-.13a11.87,11.87,0,0,1,1.68-.21,12.08,12.08,0,0,1,1.47.09c.24,0,.49,0,.73.07a10.39,10.39,0,0,1,2.17.64A16.67,16.67,0,0,1,70.14,134a15.9,15.9,0,0,1,2.76,0c.47,0,.94.07,1.41.14a18.88,18.88,0,0,1,2.07.5c.43.12.87.22,1.29.38a18.4,18.4,0,0,1,2.1,1c.33.18.69.32,1,.53a16.61,16.61,0,0,1,2.73,2.14c.36-.9.77-1.85,1.19-2.82.11-.23.21-.46.32-.7.45-1,.92-2,1.44-3h0c.53-1,1.1-2,1.69-3l.36-.59a40.51,40.51,0,0,1,4.14-5.74l.37-.41A25.74,25.74,0,0,1,95.43,120l0,0a19.3,19.3,0,0,1,2.71-2l.43-.25a16,16,0,0,1,2.77-1.25,14.46,14.46,0,0,1,10.09.41C111.58,117,111.7,117,111.83,117.05Zm-19.14-6-4.3-3.1-9.89-2.45-11.42.92L63.38,104l3.08-6.17L68,88.26,80,91l14.19,13ZM91,80.06,88.24,68l9.56-1.54L104,63.4l2.47,3.7-.92,11.42L108,88.41l3.1,4.3L104,94.25Z"/></svg>