<?xml version="1.0" standalone="no"?><!DOCTYPE svg PUBLIC "-//W3C//DTD SVG 1.1//EN" "http://www.w3.org/Graphics/SVG/1.1/DTD/svg11.dtd"><svg t="1695464424817" class="icon" viewBox="0 0 1024 1024" version="1.1" xmlns="http://www.w3.org/2000/svg" p-id="7505" xmlns:xlink="http://www.w3.org/1999/xlink" width="200" height="200"><path d="M800 672a128 128 0 1 1 0 256l-232.576 0.032a64 64 0 1 1 0-64.032H800a64 64 0 1 0 0-128h-180.8c20.544-21.504 39.68-42.848 57.28-64H800zM512 64a256 256 0 0 1 255.52 240.128l0.352 7.904L768 320l-0.16 9.184c-3.616 114.784-75.04 242.272-214.304 382.496l-19.328 19.072a32 32 0 0 1-41.408 2.528l-2.976-2.56-9.216-8.96c-142.24-140.544-216.928-268.416-224.032-383.648l-0.448-9.6L256 320a256 256 0 0 1 256-256zM224 480h2.208c8.768 21.152 19.264 42.496 31.424 64H224a64 64 0 1 0 0 128h123.52c17.6 21.12 36.704 42.464 57.28 64H224a128 128 0 1 1 0-256z m288-256a96 96 0 1 0 0 192 96 96 0 0 0 0-192z" fill="#f37622" p-id="7506"></path></svg>