<svg width="18" height="18" viewBox="0 0 18 18" fill="none" xmlns="http://www.w3.org/2000/svg">
<g id="ri:file-excel-2-fill">
<path id="Vector" d="M2.14402 2.15779L11.5715 0.811539C11.6247 0.803916 11.6788 0.807792 11.7303 0.822905C11.7819 0.838019 11.8295 0.864017 11.8701 0.899143C11.9107 0.934269 11.9433 0.977703 11.9657 1.02651C11.988 1.07531 11.9997 1.12835 11.9998 1.18204V16.818C11.9997 16.8717 11.988 16.9246 11.9657 16.9734C11.9434 17.0221 11.9109 17.0655 11.8704 17.1006C11.8299 17.1357 11.7823 17.1617 11.7309 17.1769C11.6794 17.1921 11.6254 17.196 11.5723 17.1885L2.14327 15.8423C1.96449 15.8168 1.80089 15.7277 1.68254 15.5913C1.56419 15.4549 1.49903 15.2804 1.49902 15.0998V2.90029C1.49903 2.7197 1.56419 2.54517 1.68254 2.40877C1.80089 2.27237 1.96524 2.18325 2.14402 2.15779ZM12.7498 2.25004H15.7498C15.9487 2.25004 16.1395 2.32906 16.2801 2.46971C16.4208 2.61036 16.4998 2.80113 16.4998 3.00004V15C16.4998 15.199 16.4208 15.3897 16.2801 15.5304C16.1395 15.671 15.9487 15.75 15.7498 15.75H12.7498V2.25004ZM7.64977 9.00004L9.74977 6.00004H7.94977L6.74977 7.71454L5.54977 6.00004H3.74977L5.84977 9.00004L3.74977 12H5.54977L6.74977 10.2855L7.94977 12H9.74977L7.64977 9.00004Z" fill="#939393"/>
</g>
</svg>
