<svg width="100" height="100" viewBox="0 0 100 100" fill="none" xmlns="http://www.w3.org/2000/svg">
<g clip-path="url(#clip0_265_10807)">
<path fill-rule="evenodd" clip-rule="evenodd" d="M28.8333 25.125C27.3967 25.125 26.019 25.6957 25.0032 26.7115C23.9873 27.7273 23.4167 29.1051 23.4167 30.5417V68.4583C23.4167 69.8949 23.9873 71.2727 25.0032 72.2885C26.019 73.3043 27.3967 73.875 28.8333 73.875H72.1667C73.6032 73.875 74.981 73.3043 75.9968 72.2885C77.0126 71.2727 77.5833 69.8949 77.5833 68.4583V30.5417C77.5833 29.1051 77.0126 27.7273 75.9968 26.7115C74.981 25.6957 73.6032 25.125 72.1667 25.125H28.8333ZM41.3594 40.3729C41.4195 39.8551 41.5998 39.3586 41.8858 38.9228C42.1719 38.4871 42.5559 38.1242 43.0071 37.8632C43.4583 37.6022 43.9643 37.4503 44.4847 37.4196C45.005 37.3889 45.5254 37.4802 46.0042 37.6862C47.3692 38.2712 50.2508 39.5875 53.9017 41.6946C56.4674 43.161 58.9452 44.7761 61.3225 46.5317C61.7405 46.8427 62.0799 47.2471 62.3138 47.7126C62.5477 48.1782 62.6695 48.6919 62.6695 49.2129C62.6695 49.7339 62.5477 50.2477 62.3138 50.7132C62.0799 51.1787 61.7405 51.5832 61.3225 51.8942C58.9451 53.6479 56.4673 55.2612 53.9017 56.7258C51.3496 58.2165 48.7126 59.5567 46.0042 60.7396C45.5254 60.9463 45.0049 61.038 44.4844 61.0076C43.9638 60.9771 43.4576 60.8253 43.0062 60.5642C42.5548 60.3031 42.1708 59.94 41.8848 59.5039C41.5989 59.0679 41.4189 58.571 41.3594 58.0529C41.0344 55.1176 40.8753 52.1662 40.8827 49.2129C40.8827 45.0123 41.186 41.849 41.3594 40.3729Z" fill="white" fill-opacity="0.1"/>
</g>
<defs>
<clipPath id="clip0_265_10807">
<rect width="65" height="65" fill="white" transform="translate(18 17)"/>
</clipPath>
</defs>
</svg>
