<svg width="100" height="100" viewBox="0 0 100 100" fill="none" xmlns="http://www.w3.org/2000/svg">
<rect width="23" height="6" transform="translate(72 72)" fill="#9FA0A0"/>
<rect width="23" height="6" transform="translate(72 60)" fill="#9FA0A0"/>
<rect width="31" height="6" transform="translate(64 48)" fill="#9FA0A0"/>
<rect width="38.2105" height="6" transform="translate(57 36)" fill="#9FA0A0"/>
<rect width="38.2105" height="6" transform="translate(57 24)" fill="#9FA0A0"/>
<path d="M33 49.5C29.0125 49.5 25.599 48.1047 22.7594 45.3141C19.9198 42.5234 18.5 39.1688 18.5 35.25C18.5 31.3312 19.9198 27.9766 22.7594 25.1859C25.599 22.3953 29.0125 21 33 21C36.9875 21 40.401 22.3953 43.2406 25.1859C46.0802 27.9766 47.5 31.3312 47.5 35.25C47.5 39.1688 46.0802 42.5234 43.2406 45.3141C40.401 48.1047 36.9875 49.5 33 49.5ZM4 78V68.025C4 66.0063 4.52925 64.1514 5.58775 62.4604C6.64625 60.7694 8.05033 59.4774 9.8 58.5844C13.5458 56.7438 17.3521 55.3639 21.2187 54.4447C25.0854 53.5256 29.0125 53.0649 33 53.0625C36.9875 53.0601 40.9146 53.5209 44.7812 54.4447C48.6479 55.3686 52.4542 56.7485 56.2 58.5844C57.9521 59.475 59.3574 60.767 60.4159 62.4604C61.4744 64.1537 62.0024 66.0086 62 68.025V78H4Z" fill="#9FA0A0"/>
</svg>
