<svg width="40" height="36" viewBox="0 0 40 36" fill="none" xmlns="http://www.w3.org/2000/svg">
    <path
        d="M37.5 0.5H2.5C1.83696 0.5 1.20107 0.807291 0.732233 1.35427C0.263392 1.90125 0 2.64312 0 3.41667V32.5833C0 33.3569 0.263392 34.0987 0.732233 34.6457C1.20107 35.1927 1.83696 35.5 2.5 35.5H37.5C38.163 35.5 38.7989 35.1927 39.2678 34.6457C39.7366 34.0987 40 33.3569 40 32.5833V3.41667C40 2.64312 39.7366 1.90125 39.2678 1.35427C38.7989 0.807291 38.163 0.5 37.5 0.5ZM21.25 23.8333H8.75C8.41848 23.8333 8.10054 23.6797 7.86612 23.4062C7.6317 23.1327 7.5 22.7618 7.5 22.375C7.5 21.9882 7.6317 21.6173 7.86612 21.3438C8.10054 21.0703 8.41848 20.9167 8.75 20.9167H21.25C21.5815 20.9167 21.8995 21.0703 22.1339 21.3438C22.3683 21.6173 22.5 21.9882 22.5 22.375C22.5 22.7618 22.3683 23.1327 22.1339 23.4062C21.8995 23.6797 21.5815 23.8333 21.25 23.8333ZM31.25 18H8.75C8.41848 18 8.10054 17.8464 7.86612 17.5729C7.6317 17.2994 7.5 16.9284 7.5 16.5417C7.5 16.1549 7.6317 15.784 7.86612 15.5105C8.10054 15.237 8.41848 15.0833 8.75 15.0833H31.25C31.5815 15.0833 31.8995 15.237 32.1339 15.5105C32.3683 15.784 32.5 16.1549 32.5 16.5417C32.5 16.9284 32.3683 17.2994 32.1339 17.5729C31.8995 17.8464 31.5815 18 31.25 18ZM31.25 12.1667H8.75C8.41848 12.1667 8.10054 12.013 7.86612 11.7395C7.6317 11.466 7.5 11.0951 7.5 10.7083C7.5 10.3216 7.6317 9.95063 7.86612 9.67714C8.10054 9.40365 8.41848 9.25 8.75 9.25H31.25C31.5815 9.25 31.8995 9.40365 32.1339 9.67714C32.3683 9.95063 32.5 10.3216 32.5 10.7083C32.5 11.0951 32.3683 11.466 32.1339 11.7395C31.8995 12.013 31.5815 12.1667 31.25 12.1667Z"
        fill="url(#paint0_linear_131_472)" />
    <defs>
        <linearGradient id="paint0_linear_131_472" x1="0.5" y1="18" x2="45.5" y2="18" gradientUnits="userSpaceOnUse">
            <stop stop-color="#FA5FA6" />
            <stop offset="1" stop-color="#1D95F8" />
        </linearGradient>
    </defs>
</svg>