<svg width="100" height="100" viewBox="0 0 100 100" fill="none" xmlns="http://www.w3.org/2000/svg">
<rect width="99" height="8" transform="translate(0 91)" fill="white"/>
<path d="M51.8639 21.3344C60.1899 25.2303 68.6523 29.2535 76.9668 33.1736C77.4104 33.3829 77.9922 33.5253 77.9929 34.159C77.9937 34.7938 77.4128 34.9351 76.9681 35.1446C68.6212 39.0843 60.2711 43.0171 51.9177 46.943C50.6452 47.5407 49.3385 47.5329 48.0644 46.9339C39.6952 42.9977 31.3283 39.0564 22.9637 35.11C22.5332 34.9068 21.9915 34.7532 22.0084 34.1356C22.0241 33.5578 22.5424 33.4077 22.9565 33.2123C31.3563 29.2531 39.8413 25.2316 48.252 21.2967C49.1411 20.8814 50.9376 20.9098 51.8639 21.3344ZM49.9899 78.75C49.3843 78.75 48.9305 78.5182 48.0651 78.1914C39.7073 74.2808 31.3598 70.3476 23.013 66.4131C22.5693 66.204 21.9948 66.0563 22 65.4187C22.0055 64.7844 22.5805 64.6444 23.0244 64.4315C24.4088 63.7674 25.8004 63.1183 27.1913 62.4681C28.5812 61.8183 29.9616 61.8273 31.3554 62.4864C36.8886 65.1027 42.4275 67.7059 47.9629 70.3167C49.3374 70.9649 50.7001 70.9515 52.0729 70.3028C57.6241 67.6814 63.1768 65.0633 68.7311 62.4486C70.0426 61.8311 71.3714 61.8139 72.6891 62.4162C74.1709 63.0933 75.6417 63.7948 77.1134 64.4927C77.3316 64.5962 77.5529 64.713 77.7357 64.868C78.129 65.2025 78.1343 65.6554 77.7328 65.9797C77.4888 66.1769 77.1968 66.3219 76.9105 66.4566C68.6311 70.3589 60.3528 74.2633 52.0622 78.1413C51.4178 78.4424 50.5957 78.75 49.9899 78.75ZM49.9606 63.113C49.6837 63.113 48.6079 62.8167 47.9955 62.5299C39.6721 58.6307 31.3598 54.7073 23.0469 50.7858C22.6004 50.5752 22.0182 50.4392 22.0066 49.8117C21.9943 49.146 22.6037 49.0129 23.0633 48.7923C24.4633 48.12 25.8671 47.4552 27.276 46.8021C28.6121 46.183 29.9503 46.1976 31.2852 46.8264C36.8742 49.46 42.4632 52.094 48.0561 54.7188C49.3508 55.3264 50.6656 55.3215 51.9613 54.7132C57.5704 52.0786 63.1756 49.4357 68.7841 46.7992C70.0807 46.1896 71.3909 46.1899 72.6884 46.7873C74.1671 47.4678 75.6367 48.1688 77.1077 48.8658C77.3098 48.9617 77.517 49.0628 77.6899 49.2014C78.1364 49.5591 78.1327 50.0314 77.6812 50.3893C77.5074 50.5273 77.301 50.6291 77.099 50.7245C68.7007 54.6848 60.3042 58.6486 51.8959 62.5864C51.318 62.8573 50.2372 63.113 49.9606 63.113Z" fill="white"/>
</svg>
