<svg width="46" height="36" viewBox="0 0 46 36" fill="none" xmlns="http://www.w3.org/2000/svg">
    <path
        d="M40.5 35.5C39.7917 35.5 39.1983 35.26 38.72 34.78C38.24 34.3017 38 33.7083 38 33V3C38 2.29167 38.24 1.6975 38.72 1.2175C39.1983 0.739167 39.7917 0.5 40.5 0.5H43C43.7083 0.5 44.3017 0.739167 44.78 1.2175C45.26 1.6975 45.5 2.29167 45.5 3V33C45.5 33.7083 45.26 34.3017 44.78 34.78C44.3017 35.26 43.7083 35.5 43 35.5H40.5ZM13 35.5C12.2917 35.5 11.6975 35.26 11.2175 34.78C10.7392 34.3017 10.5 33.7083 10.5 33V3C10.5 2.29167 10.7392 1.6975 11.2175 1.2175C11.6975 0.739167 12.2917 0.5 13 0.5H33C33.7083 0.5 34.3017 0.739167 34.78 1.2175C35.26 1.6975 35.5 2.29167 35.5 3V33C35.5 33.7083 35.26 34.3017 34.78 34.78C34.3017 35.26 33.7083 35.5 33 35.5H13ZM3 35.5C2.29167 35.5 1.69833 35.26 1.22 34.78C0.74 34.3017 0.5 33.7083 0.5 33V3C0.5 2.29167 0.74 1.6975 1.22 1.2175C1.69833 0.739167 2.29167 0.5 3 0.5H5.5C6.20833 0.5 6.8025 0.739167 7.2825 1.2175C7.76083 1.6975 8 2.29167 8 3V33C8 33.7083 7.76083 34.3017 7.2825 34.78C6.8025 35.26 6.20833 35.5 5.5 35.5H3Z"
        fill="url(#paint0_linear_131_472)" />
    <defs>
        <linearGradient id="paint0_linear_131_472" x1="0.5" y1="18" x2="45.5" y2="18" gradientUnits="userSpaceOnUse">
            <stop stop-color="#FA5FA6" />
            <stop offset="1" stop-color="#1D95F8" />
        </linearGradient>
    </defs>
</svg>