<svg width="48" height="36" viewBox="0 0 48 36" fill="none" xmlns="http://www.w3.org/2000/svg">
    <path
        d="M21.0833 35.5C21.0833 35.5 18.1666 35.5 18.1666 32.5833C18.1666 29.6667 21.0833 20.9167 32.75 20.9167C44.4166 20.9167 47.3333 29.6667 47.3333 32.5833C47.3333 35.5 44.4166 35.5 44.4166 35.5H21.0833ZM32.75 18C35.0706 18 37.2962 17.0781 38.9371 15.4372C40.5781 13.7962 41.5 11.5706 41.5 9.25C41.5 6.92936 40.5781 4.70376 38.9371 3.06282C37.2962 1.42187 35.0706 0.5 32.75 0.5C30.4293 0.5 28.2037 1.42187 26.5628 3.06282C24.9218 4.70376 24 6.92936 24 9.25C24 11.5706 24.9218 13.7962 26.5628 15.4372C28.2037 17.0781 30.4293 18 32.75 18ZM15.88 35.5C15.4476 34.5895 15.2319 33.5912 15.25 32.5833C15.25 28.6313 17.2333 24.5625 20.8966 21.7333C19.0681 21.1699 17.1631 20.8944 15.25 20.9167C3.58329 20.9167 0.666626 29.6667 0.666626 32.5833C0.666626 35.5 3.58329 35.5 3.58329 35.5H15.88ZM13.7916 18C15.7255 18 17.5802 17.2318 18.9476 15.8643C20.3151 14.4969 21.0833 12.6422 21.0833 10.7083C21.0833 8.77446 20.3151 6.9198 18.9476 5.55235C17.5802 4.18489 15.7255 3.41667 13.7916 3.41667C11.8578 3.41667 10.0031 4.18489 8.63564 5.55235C7.26819 6.9198 6.49996 8.77446 6.49996 10.7083C6.49996 12.6422 7.26819 14.4969 8.63564 15.8643C10.0031 17.2318 11.8578 18 13.7916 18Z"
        fill="url(#paint0_linear_131_472)" />
    <defs>
        <linearGradient id="paint0_linear_131_472" x1="0.5" y1="18" x2="45.5" y2="18" gradientUnits="userSpaceOnUse">
            <stop stop-color="#FA5FA6" />
            <stop offset="1" stop-color="#1D95F8" />
        </linearGradient>
    </defs>
</svg>