<svg width="36" height="36" viewBox="0 0 36 36" fill="none" xmlns="http://www.w3.org/2000/svg">
    <path
        d="M6.33333 27.7222C6.33333 23.8333 14.1111 21.6944 18 21.6944C21.8889 21.6944 29.6667 23.8333 29.6667 27.7222V29.6667H6.33333M23.8333 12.1667C23.8333 13.7138 23.2188 15.1975 22.1248 16.2915C21.0308 17.3854 19.5471 18 18 18C16.4529 18 14.9692 17.3854 13.8752 16.2915C12.7812 15.1975 12.1667 13.7138 12.1667 12.1667C12.1667 10.6196 12.7812 9.13584 13.8752 8.04188C14.9692 6.94792 16.4529 6.33333 18 6.33333C19.5471 6.33333 21.0308 6.94792 22.1248 8.04188C23.2188 9.13584 23.8333 10.6196 23.8333 12.1667ZM0.5 4.38889V31.6111C0.5 32.6425 0.909721 33.6317 1.63903 34.361C2.36834 35.0903 3.35749 35.5 4.38889 35.5H31.6111C32.6425 35.5 33.6317 35.0903 34.361 34.361C35.0903 33.6317 35.5 32.6425 35.5 31.6111V4.38889C35.5 3.35749 35.0903 2.36834 34.361 1.63903C33.6317 0.909721 32.6425 0.5 31.6111 0.5H4.38889C3.35749 0.5 2.36834 0.909721 1.63903 1.63903C0.909721 2.36834 0.5 3.35749 0.5 4.38889Z"
        fill="url(#paint0_linear_131_472)" />
        <defs>
        <linearGradient id="paint0_linear_131_472" x1="0.5" y1="18" x2="45.5" y2="18" gradientUnits="userSpaceOnUse">
            <stop stop-color="#FA5FA6" />
            <stop offset="1" stop-color="#1D95F8" />
        </linearGradient>
    </defs>
</svg>