<svg width="18" height="18" viewBox="0 0 18 18" fill="none" xmlns="http://www.w3.org/2000/svg">
<g id="material-symbols:save">
<path id="Vector" d="M15.75 5.25V14.25C15.75 14.6625 15.6033 15.0157 15.3097 15.3097C15.0162 15.6038 14.663 15.7505 14.25 15.75H3.75C3.3375 15.75 2.9845 15.6033 2.691 15.3097C2.3975 15.0162 2.2505 14.663 2.25 14.25V3.75C2.25 3.3375 2.397 2.9845 2.691 2.691C2.985 2.3975 3.338 2.2505 3.75 2.25H12.75L15.75 5.25ZM9 13.5C9.625 13.5 10.1562 13.2812 10.5938 12.8438C11.0312 12.4062 11.25 11.875 11.25 11.25C11.25 10.625 11.0312 10.0938 10.5938 9.65625C10.1562 9.21875 9.625 9 9 9C8.375 9 7.84375 9.21875 7.40625 9.65625C6.96875 10.0938 6.75 10.625 6.75 11.25C6.75 11.875 6.96875 12.4062 7.40625 12.8438C7.84375 13.2812 8.375 13.5 9 13.5ZM4.5 7.5H11.25V4.5H4.5V7.5Z" fill="currentColor"/>
</g>
</svg>
