<svg t="1685251425875" class="icon" viewBox="0 0 1024 1024" version="1.1" xmlns="http://www.w3.org/2000/svg" p-id="4149" width="200" height="200"><path d="M755.7 386.5l-71.6-132.1v-41.1c0-11.7-9.4-21.2-21.1-21.2H358.1c-11.6 0-21.1 9.5-21.1 21.2v44.2c0 0.6 0.2 1.1 0.3 1.7l-69 127.3c-0.9 1.6-1.3 3.4-1.3 5.2v429.4c0 6 4.9 10.9 10.8 10.9h468.3c6 0 10.8-4.9 10.8-10.9V391.7c0.1-1.9-0.3-3.7-1.2-5.2z m-20.4 423.7H611.5V394.5l61.9-114.2 61.9 114.2v415.7zM357.1 268.3h298.1L593 383H294.9l62.2-114.7z m232.7 132.9v359.3H288.7V401.2h301.1zM288.7 778.7h301.2v31.6H288.7v-31.6z m373.7-565.5v33.3H358.5l-0.4-32.7 304.3-0.6z" fill="#333333" p-id="4150"></path><path d="M336.2 629.1v-62.6h0.5l26 62.6h12.6l26-62.6h0.5v62.6h14.5v-90.9h-17l-30 71.3h-0.5l-30.1-71.3h-17v90.9zM434.9 563.3H449v65.8h-14.1zM442 555.6c2.7 0 5-0.9 6.8-2.7 1.9-1.8 2.9-4.1 2.9-7 0-2.7-0.9-5-2.7-6.9-1.8-1.8-4.1-2.7-7-2.7-2.6 0-4.9 0.9-6.8 2.7-1.8 1.8-2.7 4.1-2.7 6.9 0 2.8 0.9 5.1 2.7 7 1.9 1.9 4.1 2.7 6.8 2.7zM467.8 536.4h14.1V629h-14.1zM512.2 606l6.4-6.2 22.5 29.3h18.1l-30.9-38.6 28.4-27.2h-18.2l-26.3 26.1v-53H498v92.7h14.2z" fill="#333333" p-id="4151"></path></svg>
