<svg id="图层_1" data-name="图层 1" xmlns="http://www.w3.org/2000/svg" viewBox="0 0 200 200"><defs><style>.cls-1{fill:none;}.cls-2{fill:#43ff74;}</style></defs><path class="cls-1" d="M83.09,37.42c.32-.58.61-1.11.85-1.6-.24.49-.53,1-.85,1.6a40.55,40.55,0,0,1-8.64,10.74A40.55,40.55,0,0,0,83.09,37.42Z"/><path class="cls-1" d="M79.8,166a11.34,11.34,0,0,1-1,5.47A11.34,11.34,0,0,0,79.8,166Z"/><path class="cls-1" d="M88.62,109.11a23.66,23.66,0,0,0-4.12,6.07A23.66,23.66,0,0,1,88.62,109.11Z"/><path class="cls-1" d="M84.5,115.18a44.3,44.3,0,0,0-2.15,5.17A44.3,44.3,0,0,1,84.5,115.18Z"/><path class="cls-1" d="M76.19,174.35a6.15,6.15,0,0,1-.63.33C75.78,174.58,76,174.46,76.19,174.35Z"/><path class="cls-1" d="M72.49,175.39c-.57.07-1.24.11-2,.15C71.25,175.5,71.92,175.46,72.49,175.39Z"/><path class="cls-1" d="M74,175.16c-.41.08-.87.16-1.4.22C73.13,175.32,73.59,175.24,74,175.16Z"/><path class="cls-1" d="M75.2,174.82a6.93,6.93,0,0,1-.8.24A6.93,6.93,0,0,0,75.2,174.82Z"/><path class="cls-1" d="M111,115.44c-.18-.25-.4-.49-.59-.74C110.58,114.94,110.8,115.19,111,115.44Z"/><path class="cls-1" d="M122.31,151.05c-.89-1.32-1.89-2.71-2.92-4.43C120.42,148.34,121.42,149.73,122.31,151.05Z"/><path class="cls-1" d="M107.06,111.09c-.3-.27-.61-.53-.93-.79C106.44,110.56,106.76,110.82,107.06,111.09Z"/><path class="cls-1" d="M122.92,169c.26-.9.65-1.9,1-3C123.57,167.1,123.18,168.1,122.92,169Z"/><path class="cls-1" d="M124,166a22.05,22.05,0,0,0,1-3.81A22.05,22.05,0,0,1,124,166Z"/><path class="cls-1" d="M102.33,107.7q-.54-.3-1.08-.54Q101.79,107.4,102.33,107.7Z"/><path class="cls-1" d="M99.79,106.57c-.36-.13-.72-.25-1.08-.35C99.07,106.32,99.43,106.44,99.79,106.57Z"/><path class="cls-1" d="M104.77,109.23c-.34-.24-.68-.46-1-.69C104.09,108.77,104.43,109,104.77,109.23Z"/><path class="cls-1" d="M115.22,136.35a34.22,34.22,0,0,0,1.18,3.93,36.42,36.42,0,0,0,3,6.34,36.42,36.42,0,0,1-3-6.34A34.22,34.22,0,0,1,115.22,136.35Z"/><path class="cls-1" d="M122.92,169a5,5,0,0,0-.18,2.49A5,5,0,0,1,122.92,169Z"/><path class="cls-1" d="M108.35,112.36c.27.28.55.55.81.83C108.9,112.91,108.62,112.64,108.35,112.36Z"/><path class="cls-1" d="M112.45,117.72l0,0a15.27,15.27,0,0,1,1.89,5.22,15.27,15.27,0,0,0-1.89-5.22Z"/><path class="cls-1" d="M136.77,174.57c1.1,0,2.14,0,3.07.05C138.91,174.59,137.87,174.57,136.77,174.57Z"/><path class="cls-1" d="M168.47,148c-1.11-3.95-2.49-8.47-4.07-13.62-1-3.09-1.83-5.79-2.64-8.17.81,2.38,1.69,5.08,2.64,8.17C166,139.56,167.36,144.08,168.47,148Z"/><path class="cls-1" d="M61.54,75.63a22.51,22.51,0,0,0,2.32-4.44,22.51,22.51,0,0,1-2.32,4.44A24.22,24.22,0,0,1,56.76,81,24.22,24.22,0,0,0,61.54,75.63Z"/><path class="cls-1" d="M31.87,115.41c-.23,1-.47,2.16-.7,3.32L30,124.29l1.14-5.56C31.4,117.57,31.64,116.46,31.87,115.41Z"/><path class="cls-1" d="M25,161.21a22.82,22.82,0,0,0,1.5,7.35A22.82,22.82,0,0,1,25,161.21Z"/><path class="cls-1" d="M38.71,175a56.43,56.43,0,0,1-5.72-.53A56.43,56.43,0,0,0,38.71,175Z"/><path class="cls-1" d="M63.55,175.6c-1.21,0-2.5,0-4,0C61,175.58,62.34,175.59,63.55,175.6Z"/><path class="cls-1" d="M69.76,175.56c-.55,0-1.13,0-1.78,0C68.62,175.6,69.21,175.58,69.76,175.56Z"/><path class="cls-1" d="M66.14,175.62h0Z"/><path class="cls-1" d="M88.62,109.11A10.53,10.53,0,0,1,93.86,106h0A10.53,10.53,0,0,0,88.62,109.11Z"/><path class="cls-1" d="M26.46,168.56a12.05,12.05,0,0,0,3.73,5,6.61,6.61,0,0,0,2.8.88,6.61,6.61,0,0,1-2.8-.88A12.05,12.05,0,0,1,26.46,168.56Z"/><path class="cls-1" d="M96.17,105.83a9.47,9.47,0,0,1,1,.12A9.47,9.47,0,0,0,96.17,105.83Z"/><path class="cls-1" d="M76.45,174.19a5.41,5.41,0,0,0,.76-.6,7.35,7.35,0,0,0,1.62-2.12,7.35,7.35,0,0,1-1.62,2.12A5.41,5.41,0,0,1,76.45,174.19Z"/><path class="cls-1" d="M81.45,123.15C80.88,125.06,80.39,127,80,129,80.4,127,80.88,125.06,81.45,123.15Z"/><path class="cls-1" d="M152,175.82h0Z"/><path class="cls-1" d="M71.12,51.74a40.63,40.63,0,0,1,3.33-3.58A40.63,40.63,0,0,0,71.12,51.74Z"/><path class="cls-1" d="M90,26.56c.38-.34.76-.68,1.17-1C90.8,25.88,90.42,26.22,90,26.56Z"/><path class="cls-1" d="M100.42,20.92a11.6,11.6,0,0,1,1.3-.18A11.6,11.6,0,0,0,100.42,20.92Z"/><path class="cls-1" d="M153.2,175.88h0Z"/><path class="cls-1" d="M149,175.47l-1.54-.22Z"/><path class="cls-1" d="M150.49,175.68l-.32,0Z"/><path class="cls-1" d="M64.29,69.9a19.7,19.7,0,0,0,.54-2.42A19.7,19.7,0,0,1,64.29,69.9Z"/><path class="cls-1" d="M139.27,89.7a25.77,25.77,0,0,0,3.58,1.6A25.77,25.77,0,0,1,139.27,89.7Z"/><path class="cls-1" d="M155,175.77l-.31,0Z"/><path class="cls-1" d="M88,28.6c.45-.51,1-1,1.5-1.55C89,27.57,88.45,28.08,88,28.6Z"/><path class="cls-1" d="M124.75,173.81a3.85,3.85,0,0,1-1.5-1.2A3.85,3.85,0,0,0,124.75,173.81Z"/><path class="cls-1" d="M102.94,20.63l-.31,0a10.34,10.34,0,0,1,2,.11A10.73,10.73,0,0,0,102.94,20.63Z"/><path class="cls-1" d="M25,155c.14-2.26.4-4.71.76-7.34C25.42,150.27,25.16,152.72,25,155Z"/><path class="cls-1" d="M130.42,174.63h.28c-1.13,0-2.11,0-3-.11C128.51,174.59,129.4,174.63,130.42,174.63Z"/><path class="cls-1" d="M135,174.57l-3.39.05Z"/><path class="cls-1" d="M127.06,174.43a8.25,8.25,0,0,1-1.74-.4A8.25,8.25,0,0,0,127.06,174.43Z"/><path class="cls-1" d="M93.93,23.63c.4-.25.8-.49,1.22-.72C94.73,23.14,94.33,23.38,93.93,23.63Z"/><path class="cls-1" d="M91.93,25c.38-.3.77-.59,1.18-.86C92.7,24.42,92.32,24.71,91.93,25Z"/><path class="cls-1" d="M98.21,21.54c.42-.15.85-.28,1.27-.39C99.06,21.26,98.63,21.39,98.21,21.54Z"/><path class="cls-1" d="M147,175.19l-1.57-.18Z"/><path class="cls-1" d="M145.14,175l-2.09-.18Z"/><path class="cls-1" d="M96,22.46c.42-.2.83-.39,1.25-.57C96.86,22.07,96.45,22.26,96,22.46Z"/><path class="cls-1" d="M142.5,174.75c-.75-.05-1.54-.09-2.41-.12C141,174.66,141.75,174.7,142.5,174.75Z"/><path class="cls-2" d="M30.19,173.59a6.61,6.61,0,0,0,2.8.88,56.43,56.43,0,0,0,5.72.53c3.62.21,8.39.32,14.42.44l6.45.11h0c1.47,0,2.76,0,4,0H68c.65,0,1.23,0,1.78,0l.76,0c.73,0,1.4-.08,2-.15h.11c.53-.06,1-.14,1.4-.22l.4-.1a6.93,6.93,0,0,0,.8-.24l.36-.14a6.15,6.15,0,0,0,.63-.33c.09-.06.18-.1.26-.16a5.41,5.41,0,0,0,.76-.6,7.35,7.35,0,0,0,1.62-2.12,11.34,11.34,0,0,0,1-5.47c-.09-4.25-1.32-9.78-1.61-17-.07-1.81-.08-3.73,0-5.76.07-1.7.2-3.53.4-5.42C78.9,135,79.36,132,80,129c.41-2,.9-3.94,1.47-5.85.28-1,.58-1.89.9-2.8a44.3,44.3,0,0,1,2.15-5.17,23.66,23.66,0,0,1,4.12-6.07A10.53,10.53,0,0,1,93.86,106h0a9.1,9.1,0,0,1,2-.21c.12,0,.24,0,.36,0a9.47,9.47,0,0,1,1,.12,13.53,13.53,0,0,1,1.5.27c.36.1.72.22,1.08.35a14.87,14.87,0,0,1,1.46.59q.54.24,1.08.54.72.39,1.41.84c.35.23.69.45,1,.69s.91.7,1.36,1.07.63.52.93.79c.45.41.87.84,1.29,1.27s.55.55.81.83c.43.49.83,1,1.23,1.51.19.25.41.49.59.74a23.1,23.1,0,0,1,1.47,2.28l0,0a15.27,15.27,0,0,1,1.89,5.22,25.4,25.4,0,0,1,.17,4.7,38.2,38.2,0,0,0,.11,5.37,27.42,27.42,0,0,0,.57,3.31,34.22,34.22,0,0,0,1.18,3.93,36.42,36.42,0,0,0,3,6.34c1,1.72,2,3.11,2.92,4.43,1.76,2.63,3,4.93,2.9,8.83a16.32,16.32,0,0,1-.22,2.28,22.05,22.05,0,0,1-1,3.81c-.39,1.13-.78,2.13-1,3a5,5,0,0,0-.18,2.49,3.31,3.31,0,0,0,.51,1.12,3.85,3.85,0,0,0,1.5,1.2c.18.08.37.15.57.22a8.25,8.25,0,0,0,1.74.4c.21,0,.4.07.63.09.9.08,1.88.11,3,.11h.92l3.39-.05h1.76c1.1,0,2.14,0,3.07.05h.25c.87,0,1.66.07,2.41.12l.55,0,2.09.18.3,0,1.57.18.43.06,1.54.22,1.19.17.32,0c.42,0,.83.1,1.23.13H152c.35,0,.7,0,1.06.05h.25c.44,0,.89,0,1.37-.06l.31,0c.51-.05,1-.11,1.61-.22a56.68,56.68,0,0,0,7.64-1.7,11,11,0,0,0,5.1-3.2c2.81-3.26,2.67-8.55.62-17.09-.41-1.71-.9-3.55-1.45-5.53-1.11-3.95-2.49-8.47-4.07-13.62-1-3.09-1.83-5.79-2.64-8.17-1.22-3.56-2.29-6.38-3.21-8.7-.62-1.54-1.18-2.85-1.67-4-2.22-5.18-3.23-7-3.26-11.46,0-1.72.1-6.69-2.94-8.82a4.77,4.77,0,0,0-1.45-.68c-1.51-.42-3.3-.26-6.38-1.28a25.77,25.77,0,0,1-3.58-1.6c-.7-.37-1.48-.82-2.3-1.34-7.32-4.64-9.22-26.73-16.66-46-3.92-10.19-8-20.29-15.67-21.55a10.34,10.34,0,0,0-2-.11c-.3,0-.61.05-.91.08a11.6,11.6,0,0,0-1.3.18c-.31.06-.62.15-.94.23s-.85.24-1.27.39l-.93.35c-.42.18-.83.37-1.25.57s-.59.29-.88.45-.82.47-1.22.72l-.82.52c-.41.27-.8.56-1.18.86s-.49.35-.72.54c-.41.33-.79.67-1.17,1l-.55.49c-.54.52-1,1-1.5,1.55-2.19,2.48-2.3,3.82-4,7.22-.24.49-.53,1-.85,1.6a40.55,40.55,0,0,1-8.64,10.74,40.63,40.63,0,0,0-3.33,3.58c-.57.7-1.15,1.47-1.75,2.34-4.14,6.05-3.89,9.5-4.54,13.4a19.7,19.7,0,0,1-.54,2.42c-.12.42-.27.85-.43,1.29a22.51,22.51,0,0,1-2.32,4.44A24.22,24.22,0,0,1,56.76,81C53.5,83.69,50.1,85,46.51,87.41A29.69,29.69,0,0,0,41,92.28a26.24,26.24,0,0,0-5.12,9c-.41,1.1-.84,2.34-1.27,3.73-.86,2.79-1.76,6.2-2.7,10.42-.23,1-.47,2.16-.7,3.32L30,124.29c-1.83,9-3.35,16.77-4.25,23.35-.36,2.63-.62,5.08-.76,7.34a52.43,52.43,0,0,0-.06,6.23,22.82,22.82,0,0,0,1.5,7.35A12.05,12.05,0,0,0,30.19,173.59Z"/><path d="M27.33,177.23c3,2.37,8.67,2.55,32.17,3,2.6,0,4.79.07,6.64.07,7.43,0,11-.31,14.21-3.26,5.12-4.73,4.33-11,3.41-18.23a86.9,86.9,0,0,1-.94-15.35c.57-14.43,5.65-31.48,12-32.89a4.19,4.19,0,0,1,1-.1c3.91,0,9.7,4.4,12.63,9.6,1.6,2.84,1.55,4.63,1.46,7.6A34.55,34.55,0,0,0,112,141.86a44.46,44.46,0,0,0,5.75,10.78c2,2.89,2.89,4.21,2.79,7.09a17.54,17.54,0,0,1-1.34,5.69c-1,2.65-2.27,6.27.21,9.84,2.79,4,7.71,4,11,4l2.72,0,1.92,0h1.33a71.36,71.36,0,0,1,11.82.85,33.31,33.31,0,0,0,5,.47,23.29,23.29,0,0,0,4.18-.4c6.53-1.18,11.68-2.1,15.42-6.43,6.28-7.26,2.85-18.42-4-40.63a195.29,195.29,0,0,0-8.3-22.75c-1.73-4-2.26-5.19-2.28-8.26,0-2.66,0-9.15-4.91-12.57a11,11,0,0,0-5.43-1.81,17.34,17.34,0,0,1-3.61-.76,25.47,25.47,0,0,1-4.85-2.45c-2.95-1.87-5.58-12-7.89-20.86a213.87,213.87,0,0,0-6.92-22.93c-4.1-10.66-8.75-22.74-19.25-24.46a15.28,15.28,0,0,0-2.45-.2c-7.38,0-14.54,5.14-18.43,9.54A19.63,19.63,0,0,0,81,31.27c-.47,1-1,2.23-1.93,3.88a34,34,0,0,1-7.12,9,44.5,44.5,0,0,0-6.38,7.31,27.13,27.13,0,0,0-5,13.43,16,16,0,0,1-2.85,8.18c-2.75,4.17-5.51,5.71-9,7.65A38.29,38.29,0,0,0,37.51,89.2c-3.3,3.7-6.85,9-10.88,28.6C19.93,150.51,16.23,168.52,27.33,177.23ZM25,155c.14-2.26.4-4.71.76-7.34.9-6.58,2.42-14.34,4.25-23.35l1.14-5.56c.23-1.16.47-2.27.7-3.32.94-4.22,1.84-7.63,2.7-10.42.43-1.39.86-2.63,1.27-3.73a26.24,26.24,0,0,1,5.12-9,29.38,29.38,0,0,1,5.55-4.87C50.1,85,53.5,83.69,56.76,81a24.22,24.22,0,0,0,4.78-5.39,22.51,22.51,0,0,0,2.32-4.44c.16-.44.31-.87.43-1.29a19.7,19.7,0,0,0,.54-2.42c.65-3.9.4-7.35,4.54-13.4.6-.87,1.18-1.64,1.75-2.34a40.63,40.63,0,0,1,3.33-3.58,40.55,40.55,0,0,0,8.64-10.74c.32-.58.61-1.11.85-1.6,1.75-3.4,1.86-4.74,4-7.22.46-.52,1-1,1.5-1.55l.55-.49c.38-.34.76-.68,1.17-1,.23-.19.48-.36.72-.54s.77-.59,1.18-.86l.82-.52c.4-.25.8-.49,1.22-.72s.58-.3.88-.45.83-.39,1.25-.57l.93-.35c.42-.15.85-.28,1.27-.39s.63-.17.94-.23a11.6,11.6,0,0,1,1.3-.18c.3,0,.6-.07.91-.08l.31,0a10.73,10.73,0,0,1,1.7.14c7.72,1.26,11.75,11.36,15.67,21.55,7.44,19.31,9.34,41.4,16.66,46,.82.52,1.6,1,2.3,1.34a25.77,25.77,0,0,0,3.58,1.6c3.08,1,4.87.86,6.38,1.28a4.77,4.77,0,0,1,1.45.68c3,2.13,2.93,7.1,2.94,8.82,0,4.43,1,6.28,3.26,11.46.49,1.15,1.05,2.46,1.67,4,.92,2.32,2,5.14,3.21,8.7.81,2.38,1.69,5.08,2.64,8.17,1.58,5.15,3,9.67,4.07,13.62.55,2,1,3.82,1.45,5.53,2.05,8.54,2.19,13.83-.62,17.09a11,11,0,0,1-5.1,3.2,56.68,56.68,0,0,1-7.64,1.7c-.58.11-1.1.17-1.61.22l-.31,0c-.48,0-.93.06-1.37.06H153c-.36,0-.71,0-1.06-.05h-.24c-.4,0-.81-.08-1.23-.13l-.32,0-1.19-.17-1.54-.22-.43-.06-1.57-.18-.3,0-2.09-.18-.55,0c-.75-.05-1.54-.09-2.41-.12h-.25c-.93,0-2-.05-3.07-.05H135l-3.39.05h-1.2c-1,0-1.91,0-2.73-.11-.22,0-.42-.06-.63-.09a8.25,8.25,0,0,1-1.74-.4c-.19-.07-.4-.14-.57-.22a3.85,3.85,0,0,1-1.5-1.2,3.31,3.31,0,0,1-.51-1.12,5,5,0,0,1,.18-2.49c.26-.9.65-1.9,1-3a22.05,22.05,0,0,0,1-3.81,16.32,16.32,0,0,0,.22-2.28c.13-3.9-1.14-6.2-2.9-8.83-.89-1.32-1.89-2.71-2.92-4.43a36.42,36.42,0,0,1-3-6.34,34.22,34.22,0,0,1-1.18-3.93,27.42,27.42,0,0,1-.57-3.31,38.2,38.2,0,0,1-.11-5.37,25.4,25.4,0,0,0-.17-4.7,15.27,15.27,0,0,0-1.89-5.22l0,0a23.1,23.1,0,0,0-1.47-2.28c-.18-.25-.4-.5-.59-.74-.4-.51-.8-1-1.23-1.51-.26-.28-.54-.55-.81-.83s-.84-.86-1.29-1.27c-.3-.27-.62-.53-.93-.79s-.9-.73-1.36-1.07-.68-.46-1-.69-.94-.58-1.41-.84-.72-.38-1.08-.54a14.87,14.87,0,0,0-1.46-.59c-.36-.13-.72-.25-1.08-.35a13.53,13.53,0,0,0-1.5-.27,9.47,9.47,0,0,0-1-.12,8.94,8.94,0,0,0-2.31.17h0a10.53,10.53,0,0,0-5.24,3.11,23.66,23.66,0,0,0-4.12,6.07,44.3,44.3,0,0,0-2.15,5.17c-.32.91-.62,1.85-.9,2.8-.57,1.91-1,3.88-1.47,5.85-.62,3-1.08,6-1.39,8.8-.2,1.89-.33,3.72-.4,5.42-.08,2-.07,3.95,0,5.76.29,7.24,1.52,12.77,1.61,17a11.34,11.34,0,0,1-1,5.47,7.35,7.35,0,0,1-1.62,2.12,5.41,5.41,0,0,1-.76.6c-.08.06-.17.1-.26.16s-.41.23-.63.33l-.36.14a6.93,6.93,0,0,1-.8.24l-.4.1c-.41.08-.87.16-1.4.22h-.11c-.57.07-1.24.11-2,.15l-.76,0c-.55,0-1.14,0-1.78,0H63.55c-1.21,0-2.51,0-4,0h0l-6.45-.11c-6-.12-10.8-.23-14.42-.44a56.43,56.43,0,0,1-5.72-.53,6.61,6.61,0,0,1-2.8-.88,12.05,12.05,0,0,1-3.73-5,22.82,22.82,0,0,1-1.5-7.35A52.43,52.43,0,0,1,25,155Z"/><path d="M153.62,102.08c0,4.43,1,6.28,3.26,11.46-2.22-5.18-3.23-7-3.26-11.46,0-1.72.1-6.69-2.94-8.82a4.77,4.77,0,0,0-1.45-.68,4.77,4.77,0,0,1,1.45.68C153.72,95.39,153.61,100.36,153.62,102.08Z"/><path d="M89.49,27.05l.55-.49Z"/><path d="M114.54,127.67a38.2,38.2,0,0,0,.11,5.37A38.2,38.2,0,0,1,114.54,127.67Z"/><path d="M169.3,170.65a11,11,0,0,1-5.1,3.2,11,11,0,0,0,5.1-3.2c2.81-3.26,2.67-8.55.62-17.09C172,162.1,172.11,167.39,169.3,170.65Z"/><path d="M135,174.57Z"/><path d="M93.11,24.15l.82-.52Z"/><path d="M91.21,25.55c.23-.19.48-.36.72-.54C91.69,25.19,91.44,25.36,91.21,25.55Z"/><path d="M34.57,105c.43-1.39.86-2.63,1.27-3.73C35.43,102.36,35,103.6,34.57,105Z"/><path d="M101.72,20.74c.3,0,.61-.07.91-.08C102.32,20.67,102,20.71,101.72,20.74Z"/><path d="M147.44,175.25l-.43-.06Z"/><path d="M143.05,174.79l-.55,0Z"/><path d="M98.71,106.22a13.53,13.53,0,0,0-1.5-.27A13.53,13.53,0,0,1,98.71,106.22Z"/><path d="M76.45,174.19c-.08.06-.17.1-.26.16C76.28,174.29,76.37,174.25,76.45,174.19Z"/><path d="M145.44,175l-.3,0Z"/><path d="M151.72,175.81c-.4,0-.81-.08-1.23-.13C150.91,175.73,151.32,175.78,151.72,175.81Z"/><path d="M75.56,174.68l-.36.14Z"/><path d="M150.17,175.64l-1.19-.17Z"/><path d="M103.74,108.54q-.69-.45-1.41-.84C102.8,108,103.28,108.24,103.74,108.54Z"/><path d="M112.45,117.72a23.1,23.1,0,0,0-1.47-2.28A23.1,23.1,0,0,1,112.45,117.72Z"/><path d="M127.69,174.52c-.23,0-.42-.06-.63-.09C127.27,174.46,127.47,174.5,127.69,174.52Z"/><path d="M125.32,174c-.2-.07-.39-.14-.57-.22C124.92,173.89,125.13,174,125.32,174Z"/><path d="M110.39,114.7c-.4-.51-.8-1-1.23-1.51C109.59,113.68,110,114.19,110.39,114.7Z"/><path d="M131.62,174.62h0Z"/><path d="M140.09,174.63h0Z"/><path d="M106.13,110.3c-.45-.37-.9-.73-1.36-1.07C105.23,109.57,105.68,109.93,106.13,110.3Z"/><path d="M114.37,123a25.4,25.4,0,0,1,.17,4.7A25.4,25.4,0,0,0,114.37,123Z"/><path d="M74.4,175.06l-.4.1Z"/><path d="M93.86,106a8.94,8.94,0,0,1,2.31-.17c-.12,0-.24,0-.36,0A9.1,9.1,0,0,0,93.86,106Z"/><path d="M99.48,21.15c.32-.08.63-.17.94-.23C100.11,21,99.8,21.07,99.48,21.15Z"/><path d="M78.19,149c-.07-1.81-.08-3.73,0-5.76.07-1.7.2-3.53.4-5.42-.2,1.89-.33,3.72-.4,5.42C78.11,145.25,78.12,147.17,78.19,149Z"/><path d="M156.88,113.54c.49,1.15,1.05,2.46,1.67,4C157.93,116,157.37,114.69,156.88,113.54Z"/><path d="M53.13,175.44l6.45.11h0Z"/><path d="M95.15,22.91c.29-.16.58-.3.88-.45C95.73,22.61,95.44,22.75,95.15,22.91Z"/><path d="M97.28,21.89l.93-.35Z"/><path d="M107.06,111.09c.45.41.87.84,1.29,1.27C107.93,111.93,107.51,111.5,107.06,111.09Z"/><path d="M156.56,175.55c-.58.11-1.1.17-1.61.22C155.46,175.72,156,175.66,156.56,175.55Z"/><path d="M72.6,175.38h0Z"/><path d="M153,175.87c-.36,0-.71,0-1.06-.05C152.31,175.85,152.66,175.86,153,175.87Z"/><path d="M154.64,175.81c-.48,0-.93.06-1.37.06C153.71,175.87,154.16,175.85,154.64,175.81Z"/><path d="M68,175.6h0Z"/><path d="M64.66,175.61h0Z"/><path d="M164.2,173.85a56.68,56.68,0,0,1-7.64,1.7A56.68,56.68,0,0,0,164.2,173.85Z"/><path d="M70.52,175.54l-.76,0Z"/><path d="M101.25,107.16a14.87,14.87,0,0,0-1.46-.59A14.87,14.87,0,0,1,101.25,107.16Z"/><path d="M46.51,87.41A29.38,29.38,0,0,0,41,92.28a26.24,26.24,0,0,0-5.12,9,26.24,26.24,0,0,1,5.12-9A29.69,29.69,0,0,1,46.51,87.41Z"/></svg>