<svg id="图层_1" data-name="图层 1" xmlns="http://www.w3.org/2000/svg" viewBox="0 0 200 200"><defs><style>.cls-1{fill:none;}.cls-2{fill:#43ff74;}.cls-3{fill:#0af;}</style></defs><path class="cls-1" d="M41.37,176.52a19.3,19.3,0,0,1-7-2.94A19.3,19.3,0,0,0,41.37,176.52Z"/><path class="cls-1" d="M139.64,40.14h0a2.61,2.61,0,0,1,.78-1.85A2.61,2.61,0,0,0,139.64,40.14Z"/><polygon class="cls-1" points="101.23 119.78 101.23 119.79 101.23 119.78 101.23 119.78"/><path class="cls-1" d="M141.25,37.73a2.74,2.74,0,0,0-.76.51A2.74,2.74,0,0,1,141.25,37.73Z"/><path class="cls-1" d="M116.66,107.93a6.78,6.78,0,0,0-6.78-6.78h0a6.78,6.78,0,0,1,6.78,6.78v4.61a6.78,6.78,0,0,1-.24,1.75,6.78,6.78,0,0,0,.24-1.75Z"/><path class="cls-1" d="M149.41,42.15a5,5,0,0,1,.44.69,5.1,5.1,0,0,1,.45-.69Z"/><path class="cls-1" d="M64.39,114.29a6.78,6.78,0,0,1-.24-1.75,6.78,6.78,0,0,0,.24,1.75Z"/><path class="cls-1" d="M155,85.23a19.81,19.81,0,0,1,.35,3.47A18.9,18.9,0,0,0,155,85.23Z"/><path class="cls-1" d="M150.69,76.17c.19.23.38.45.56.68C151.07,76.62,150.88,76.4,150.69,76.17Z"/><path class="cls-1" d="M101.23,115.15h10.65a4.64,4.64,0,0,1,.07-2.06,2.28,2.28,0,0,0,.08-.55v-4.61a2.15,2.15,0,0,0-2.15-2.15H70.93a2.15,2.15,0,0,0-2.15,2.15v4.61a2.28,2.28,0,0,0,.08.55,4.63,4.63,0,0,1,.07,2.06H79.58a4.64,4.64,0,0,1,4.63,4.63v15.59a2.15,2.15,0,0,0,2.14,2.15h8.11a2.15,2.15,0,0,0,2.14-2.15V119.78A4.64,4.64,0,0,1,101.23,115.15Z"/><path class="cls-1" d="M34.38,72.5a19.5,19.5,0,0,1,7-3A19.5,19.5,0,0,0,34.38,72.5Z"/><path class="cls-1" d="M159.22,38.24a2.52,2.52,0,0,0-.77-.51A2.52,2.52,0,0,1,159.22,38.24Z"/><path class="cls-1" d="M31.49,74.88A19.49,19.49,0,0,0,25.76,88.7v25.59h0V88.7A19.49,19.49,0,0,1,31.49,74.88Z"/><path class="cls-1" d="M154,81.81a21.09,21.09,0,0,1,.75,2.41A19.27,19.27,0,0,0,154,81.81Z"/><path class="cls-1" d="M25.76,119.78h0v37.59a19.46,19.46,0,0,0,5.73,13.82,19.46,19.46,0,0,1-5.73-13.82Z"/><path class="cls-1" d="M124.85,60.86a9,9,0,0,1-.14-1.38A7.78,7.78,0,0,0,124.85,60.86Z"/><path class="cls-1" d="M154.06,50.83V44.77h0v6.06a2.63,2.63,0,0,1-1.61,2.43A2.63,2.63,0,0,0,154.06,50.83Z"/><path class="cls-1" d="M152.37,78.43a19.83,19.83,0,0,1,1.16,2.13A20.84,20.84,0,0,0,152.37,78.43Z"/><path class="cls-1" d="M125.26,62.21a2.63,2.63,0,0,1-.09-.3A2.63,2.63,0,0,0,125.26,62.21Z"/><path class="cls-1" d="M159.29,38.29a2.61,2.61,0,0,1,.77,1.85h0A2.61,2.61,0,0,0,159.29,38.29Z"/><path d="M140.42,38.29l.07,0Z"/><path d="M159.22,38.24l.07,0Z"/><path d="M179.75,32.68a12.25,12.25,0,0,0-12.24-12.24h-35.2a12.24,12.24,0,0,0-12.23,12.24v10a4.23,4.23,0,0,0,.21,1.07,4.23,4.23,0,0,0-.21,1.07V59.39a12.14,12.14,0,0,0,1.16,5.14H45.31A24.2,24.2,0,0,0,21.13,88.7v25.59a4.53,4.53,0,0,0,1,2.75,4.48,4.48,0,0,0-1,2.74v37.59a24.21,24.21,0,0,0,24.18,24.18h90.5A24.2,24.2,0,0,0,160,157.37V119.78a4.48,4.48,0,0,0-1-2.74,4.53,4.53,0,0,0,1-2.75V88.7a24.12,24.12,0,0,0-7.08-17.08h14.61a12.24,12.24,0,0,0,12.24-12.23V44.77a4.24,4.24,0,0,0-.22-1.07,4.24,4.24,0,0,0,.22-1.07Zm-24.4,124.69a19.54,19.54,0,0,1-19.54,19.55H45.31a19.65,19.65,0,0,1-3.94-.4,19.3,19.3,0,0,1-7-2.94,18.92,18.92,0,0,1-2.89-2.39,19.46,19.46,0,0,1-5.73-13.82V119.78H79.58v15.59a6.75,6.75,0,0,0,1.15,3.79A6.92,6.92,0,0,0,82.56,141a6.82,6.82,0,0,0,3.79,1.16h8.11a6.79,6.79,0,0,0,2.63-.53,6.79,6.79,0,0,0,4.14-6.25V119.8h54.12Zm-43.47-42.22H101.23a4.64,4.64,0,0,0-4.63,4.63v15.59a2.15,2.15,0,0,1-2.14,2.15H86.35a2.15,2.15,0,0,1-2.14-2.15V119.78a4.64,4.64,0,0,0-4.63-4.63H68.93a4.63,4.63,0,0,0-.07-2.06,2.28,2.28,0,0,1-.08-.55v-4.61a2.15,2.15,0,0,1,2.15-2.15h38.95a2.15,2.15,0,0,1,2.15,2.15v4.61a2.28,2.28,0,0,1-.08.55A4.64,4.64,0,0,0,111.88,115.15Zm41.65-34.59c.18.41.35.83.51,1.25a19.27,19.27,0,0,1,.75,2.41c.07.34.15.67.21,1a18.9,18.9,0,0,1,.35,3.47v25.59H116.42a6.78,6.78,0,0,0,.24-1.75v-4.61a6.78,6.78,0,0,0-6.78-6.78H70.93a6.78,6.78,0,0,0-6.78,6.78v4.61a6.78,6.78,0,0,0,.24,1.75H25.76V88.7A19.49,19.49,0,0,1,45.31,69.16h90.5a19.36,19.36,0,0,1,9.32,2.46h0a19.59,19.59,0,0,1,5.56,4.55c.19.23.38.45.56.68.39.51.77,1,1.12,1.58A20.84,20.84,0,0,1,153.53,80.56Zm21.59-33.3V59.39a7.61,7.61,0,0,1-7.61,7.6h-35.2a7.59,7.59,0,0,1-7-4.78,2.63,2.63,0,0,1-.09-.3,8.55,8.55,0,0,1-.32-1,7.78,7.78,0,0,1-.14-1.38V44.77h20.93v6.06a2.64,2.64,0,0,0,2.64,2.64h3.15a2.64,2.64,0,0,0,2.63-2.64V44.77h21.06Zm-25.71-5.11h.89a5.1,5.1,0,0,0-.45.69A5,5,0,0,0,149.41,42.15Zm25.71-2H160.06a2.61,2.61,0,0,0-.77-1.85l-.07,0a2.52,2.52,0,0,0-.77-.51,2.48,2.48,0,0,0-1-.21H142.28a2.53,2.53,0,0,0-1,.21,2.74,2.74,0,0,0-.76.51l-.07,0a2.61,2.61,0,0,0-.78,1.85H124.71V32.68a7.6,7.6,0,0,1,7.6-7.61h35.2a7.61,7.61,0,0,1,7.61,7.61Z"/><path d="M142.28,37.52a2.53,2.53,0,0,0-1,.21A2.53,2.53,0,0,1,142.28,37.52Z"/><path d="M158.45,37.73a2.48,2.48,0,0,0-1-.21A2.48,2.48,0,0,1,158.45,37.73Z"/><path d="M97.09,141.62a6.7,6.7,0,0,0,2.16-1.46A6.7,6.7,0,0,1,97.09,141.62Z"/><path d="M79.58,119.78h0v0Z"/><path d="M97.09,141.62a6.79,6.79,0,0,1-2.63.53h0A6.79,6.79,0,0,0,97.09,141.62Z"/><path d="M82.56,141A6.8,6.8,0,0,0,85,142,6.8,6.8,0,0,1,82.56,141Z"/><path d="M101.23,119.8h0v15.57a6.72,6.72,0,0,1-2,4.79,6.72,6.72,0,0,0,2-4.79Z"/><path d="M82.56,141a6.92,6.92,0,0,1-1.83-1.83A6.92,6.92,0,0,0,82.56,141Z"/><path class="cls-2" d="M167.51,25.07h-35.2a7.61,7.61,0,0,0-7.6,7.61v7.46h14.93a2.61,2.61,0,0,1,.78-1.85l.07,0a2.74,2.74,0,0,1,.76-.51,2.53,2.53,0,0,1,1-.21h15.15a2.48,2.48,0,0,1,1,.21,2.52,2.52,0,0,1,.77.51l.07,0a2.61,2.61,0,0,1,.77,1.85h15.06V32.68A7.61,7.61,0,0,0,167.51,25.07Z"/><path class="cls-3" d="M101.23,119.79h0v15.57a6.76,6.76,0,0,1-6.77,6.78H86.35A6.82,6.82,0,0,1,82.56,141a6.92,6.92,0,0,1-1.83-1.83,6.75,6.75,0,0,1-1.15-3.79V119.78H25.76v37.59a19.46,19.46,0,0,0,5.73,13.82,18.92,18.92,0,0,0,2.89,2.39,19.3,19.3,0,0,0,7,2.94,19.65,19.65,0,0,0,3.94.4h90.5a19.54,19.54,0,0,0,19.54-19.55V119.78H101.23Z"/><path class="cls-2" d="M154.06,44.77h0v6.06a2.64,2.64,0,0,1-2.63,2.64h-3.15a2.64,2.64,0,0,1-2.64-2.64V44.77H124.71V59.48a9,9,0,0,0,.14,1.38,7.11,7.11,0,0,0,.32,1,2.63,2.63,0,0,0,.09.3,7.48,7.48,0,0,0,1.38,2.17.75.75,0,0,1,.09.15h.07A7.48,7.48,0,0,0,132.31,67h35.2a7.61,7.61,0,0,0,7.61-7.6V44.77H154.06Z"/><path class="cls-3" d="M154.79,84.22a21.09,21.09,0,0,0-.75-2.41c-.17-.42-.32-.84-.51-1.25a19.83,19.83,0,0,0-1.16-2.13c-.35-.55-.72-1.07-1.12-1.58-.18-.23-.37-.45-.56-.68a19.59,19.59,0,0,0-5.56-4.55h0a19.36,19.36,0,0,0-9.32-2.46H45.31A19.55,19.55,0,0,0,25.76,88.7v25.59H64.39a6.78,6.78,0,0,1-.24-1.75v-4.61a6.78,6.78,0,0,1,6.78-6.78h38.95a6.78,6.78,0,0,1,6.78,6.78v4.61a6.78,6.78,0,0,1-.24,1.75h38.93V88.7a19.81,19.81,0,0,0-.35-3.47C154.94,84.89,154.87,84.56,154.79,84.22Z"/></svg>