<svg width="40" height="40" viewBox="0 0 20 19" fill="none" xmlns="http://www.w3.org/2000/svg">
<path d="M0 0.5V10C0 11.5167 0.3 12.9167 0.9 14.2C1.5 15.4833 2.325 16.5833 3.375 17.5C2.94167 16.8667 2.60433 16.171 2.363 15.413C2.121 14.6543 2 13.85 2 13C2 11.7667 2.25433 10.479 2.763 9.137C3.271 7.79567 4.11667 6.24167 5.3 4.475L0 0.5ZM10 1.425C7.78333 4.09167 6.22933 6.38733 5.338 8.312C4.446 10.2373 4 11.8 4 13C4 14.6667 4.58333 16.0833 5.75 17.25C6.91667 18.4167 8.33333 19 10 19C11.6667 19 13.0833 18.4167 14.25 17.25C15.4167 16.0833 16 14.6667 16 13C16 11.8 15.55 10.229 14.65 8.287C13.75 6.34567 12.2 4.05833 10 1.425ZM20 0.5L14.7 4.475C15.8833 6.24167 16.7293 7.79567 17.238 9.137C17.746 10.479 18 11.7667 18 13C18 13.85 17.8793 14.6543 17.638 15.413C17.396 16.171 17.0583 16.8667 16.625 17.5C17.675 16.5833 18.5 15.4833 19.1 14.2C19.7 12.9167 20 11.5167 20 10V0.5Z" fill="#000"/>
</svg>
