<svg width="83" height="83" viewBox="0 0 83 83" fill="none" xmlns="http://www.w3.org/2000/svg">
<path d="M32.7613 4.62012C31.2821 4.62012 30.1118 5.78568 30.1118 7.26461C30.1118 8.74337 31.2819 9.90894 32.7613 9.90894C33.3979 9.90894 33.9752 9.6922 34.4278 9.32858L43.9663 12.7968L42.1961 17.6641L45.0432 18.6995L45.8262 16.5473L71.7454 25.9715L80.1602 24.3589L74.8537 17.7286L48.8364 8.2692L49.6188 6.11736L46.7718 5.08213L45.0016 9.94979L35.2664 6.40997C34.9172 5.36112 33.9404 4.62012 32.7613 4.62012ZM47.801 11.1162L67.9053 18.426L69.678 20.6107L67.2577 21.1169L46.861 13.7005L47.8012 11.1162H47.801ZM26.4895 16.1299C25.0102 16.1299 23.8452 17.2954 23.8452 18.7744C23.8452 20.2531 25.0101 21.4237 26.4895 21.4237C26.7878 21.4237 27.0726 21.3743 27.3384 21.2859L27.2893 21.356L35.8487 27.3453L32.8789 31.5885L35.3612 33.3253L36.6743 31.4491L59.2708 47.2601L67.8164 47.8797L64.4067 40.1023L41.7244 24.2318L43.0374 22.3555L40.5556 20.6185L37.5857 24.8626L29.1257 18.9431C29.1289 18.887 29.1338 18.8313 29.1338 18.774C29.1338 17.2946 27.9689 16.1299 26.4895 16.1299ZM17.9431 26.5049C16.4642 26.5049 15.2939 27.6704 15.2939 29.1494C15.2939 30.6281 16.4638 31.7937 17.9434 31.7937C18.0934 31.7937 18.2389 31.7788 18.3816 31.7558L24.378 38.8967L20.4109 42.2274L22.3591 44.548L24.1131 43.0755L41.915 64.2754L49.9616 66.9888L48.5942 58.531L30.8595 37.4106L32.6132 35.9387L30.6653 33.6182L26.6984 36.9486L20.5448 29.6213C20.5715 29.4681 20.5879 29.311 20.5879 29.1495C20.5879 27.6698 19.423 26.5049 17.9434 26.5049H17.9431ZM39.9877 26.714L57.3686 38.8754L58.5046 41.4215L56.0101 41.2815L38.411 28.967L39.9875 26.7142L39.9877 26.714ZM6.94023 33.628C5.46114 33.628 4.2959 34.7935 4.2959 36.2723C4.2959 37.5411 5.15459 38.5804 6.33248 38.8508L10.2366 47.216L5.54252 49.4061L6.82383 52.1511L8.89948 51.1826L20.607 76.2674L27.6776 80.9709L28.5462 72.4472L16.8824 47.4574L18.9569 46.4891L17.6758 43.7438L12.9819 45.9342L9.15561 37.7363C9.4403 37.3011 9.59112 36.7919 9.58942 36.2718C9.58942 34.7924 8.41947 33.6273 6.94006 33.6273L6.94023 33.628ZM28.5397 39.3593L42.1737 55.5965L42.5968 58.2519L40.1316 57.4405L26.4334 41.1275L28.5392 39.3593H28.5397ZM14.1371 48.739L23.0275 67.7868L22.7417 70.5286L20.625 69.1432L11.6445 49.9018L14.1369 48.7388L14.1371 48.739Z" fill="url(#paint0_linear_100_424)"/>
<defs>
<linearGradient id="paint0_linear_100_424" x1="4.2959" y1="42.7955" x2="80.1602" y2="42.7955" gradientUnits="userSpaceOnUse">
<stop stop-color="#FA5FA6"/>
<stop offset="1" stop-color="#1D95F8"/>
</linearGradient>
</defs>
</svg>
