<svg width="83" height="83" viewBox="0 0 83 83" fill="none" xmlns="http://www.w3.org/2000/svg">
<path d="M41.5 38.0417C46.086 38.0417 50.4842 39.8635 53.727 43.1063C56.9699 46.3491 58.7917 50.7473 58.7917 55.3333V76.0833H24.2083V55.3333C24.2083 50.7473 26.0301 46.3491 29.2729 43.1063C32.5158 39.8635 36.914 38.0417 41.5 38.0417ZM18.2877 48.4374C17.7373 50.2938 17.4122 52.2096 17.3193 54.1437L17.2917 55.3333V76.0833H6.91666V60.5208C6.91598 57.5383 8.0165 54.6605 10.0071 52.4394C11.9978 50.2184 14.7384 48.8105 17.7032 48.4858L18.2877 48.4374ZM64.7123 48.4374C67.7899 48.625 70.68 49.9797 72.7931 52.2251C74.9061 54.4705 76.0829 57.4375 76.0833 60.5208V76.0833H65.7083V55.3333C65.7083 52.9367 65.3625 50.6231 64.7123 48.4374ZM19.0208 27.6667C21.3138 27.6667 23.5129 28.5776 25.1344 30.199C26.7558 31.8204 27.6667 34.0195 27.6667 36.3125C27.6667 38.6055 26.7558 40.8046 25.1344 42.426C23.5129 44.0474 21.3138 44.9583 19.0208 44.9583C16.7278 44.9583 14.5287 44.0474 12.9073 42.426C11.2859 40.8046 10.375 38.6055 10.375 36.3125C10.375 34.0195 11.2859 31.8204 12.9073 30.199C14.5287 28.5776 16.7278 27.6667 19.0208 27.6667ZM63.9792 27.6667C66.2722 27.6667 68.4713 28.5776 70.0927 30.199C71.7141 31.8204 72.625 34.0195 72.625 36.3125C72.625 38.6055 71.7141 40.8046 70.0927 42.426C68.4713 44.0474 66.2722 44.9583 63.9792 44.9583C61.6861 44.9583 59.487 44.0474 57.8656 42.426C56.2442 40.8046 55.3333 38.6055 55.3333 36.3125C55.3333 34.0195 56.2442 31.8204 57.8656 30.199C59.487 28.5776 61.6861 27.6667 63.9792 27.6667ZM41.5 6.91666C45.1688 6.91666 48.6874 8.37409 51.2816 10.9683C53.8759 13.5626 55.3333 17.0812 55.3333 20.75C55.3333 24.4188 53.8759 27.9374 51.2816 30.5316C48.6874 33.1259 45.1688 34.5833 41.5 34.5833C37.8312 34.5833 34.3126 33.1259 31.7183 30.5316C29.1241 27.9374 27.6667 24.4188 27.6667 20.75C27.6667 17.0812 29.1241 13.5626 31.7183 10.9683C34.3126 8.37409 37.8312 6.91666 41.5 6.91666Z" fill="url(#paint0_linear_100_452)"/>
<defs>
<linearGradient id="paint0_linear_100_452" x1="6.91666" y1="41.5" x2="76.0833" y2="41.5" gradientUnits="userSpaceOnUse">
<stop stop-color="#FA5FA6"/>
<stop offset="1" stop-color="#1D95F8"/>
</linearGradient>
</defs>
</svg>
