<svg width="25" height="24" viewBox="0 0 25 24" fill="none" xmlns="http://www.w3.org/2000/svg">
    <circle cx="12.5" cy="11" r="11" fill="#7650F8" />
    <path
        d="M10.5 13.6L16.4 7.69999C16.5834 7.51665 16.8167 7.42499 17.1 7.42499C17.3834 7.42499 17.6167 7.51665 17.8 7.69999C17.9834 7.88332 18.075 8.11665 18.075 8.39999C18.075 8.68332 17.9834 8.91665 17.8 9.09999L11.2 15.7C11 15.9 10.7667 16 10.5 16C10.2334 16 10 15.9 9.80005 15.7L7.20005 13.1C7.01672 12.9167 6.92505 12.6833 6.92505 12.4C6.92505 12.1167 7.01672 11.8833 7.20005 11.7C7.38338 11.5167 7.61672 11.425 7.90005 11.425C8.18338 11.425 8.41672 11.5167 8.60005 11.7L10.5 13.6Z"
        fill="white" />
</svg>