<svg width="96" height="96" viewBox="0 0 96 96" fill="none" xmlns="http://www.w3.org/2000/svg">
<path d="M29 48L35.65 54.65L43.25 47.05L43.25 67L52.75 67L52.75 47.05L60.35 54.65L67 48L48 29L29 48ZM0.499998 48C0.499998 41.4292 1.74766 35.2542 4.243 29.475C6.73517 23.6958 10.1187 18.6687 14.3937 14.3937C18.6687 10.1187 23.6958 6.73516 29.475 4.243C35.2542 1.74766 41.4292 0.499998 48 0.499998C54.5708 0.499998 60.7458 1.74767 66.525 4.243C72.3042 6.73517 77.3312 10.1187 81.6062 14.3938C85.8812 18.6688 89.2664 23.6958 91.7617 29.475C94.2539 35.2542 95.5 41.4292 95.5 48C95.5 54.5708 94.2539 60.7458 91.7617 66.525C89.2664 72.3042 85.8812 77.3313 81.6062 81.6063C77.3312 85.8813 72.3042 89.2648 66.525 91.757C60.7458 94.2523 54.5708 95.5 48 95.5C41.4292 95.5 35.2542 94.2523 29.475 91.757C23.6958 89.2648 18.6687 85.8813 14.3937 81.6063C10.1187 77.3312 6.73517 72.3042 4.243 66.525C1.74766 60.7458 0.499998 54.5708 0.499998 48Z" fill="#717273"/>
</svg>
