<svg width="54" height="36" viewBox="0 0 54 36" fill="none" xmlns="http://www.w3.org/2000/svg">
<path d="M43.0781 13.7125C42.3433 9.98876 40.3385 6.63563 37.4061 4.22585C34.4737 1.81607 30.7955 0.499142 27 0.5C20.6781 0.5 15.1875 4.0875 12.4531 9.3375C9.23801 9.68495 6.2647 11.2083 4.10451 13.6148C1.94431 16.0213 0.749624 19.1412 0.75 22.375C0.75 29.6156 6.63437 35.5 13.875 35.5H42.3125C48.35 35.5 53.25 30.6 53.25 24.5625C53.25 18.7875 48.7656 14.1062 43.0781 13.7125ZM31.375 20.1875V28.9375H22.625V20.1875H16.0625L27 9.25L37.9375 20.1875H31.375Z" fill="url(#paint0_linear_549_1930)"/>
<defs>
<linearGradient id="paint0_linear_549_1930" x1="0.75" y1="18" x2="53.25" y2="18" gradientUnits="userSpaceOnUse">
<stop stop-color="#FA5FA6"/>
<stop offset="1" stop-color="#1D95F8"/>
</linearGradient>
</defs>
</svg>
