<svg width="44" height="36" viewBox="0 0 44 36" fill="none" xmlns="http://www.w3.org/2000/svg">
<path d="M35.125 26.75L26.375 19.75V26.75H8.875V9.25H26.375V16.25L35.125 9.25M39.5 0.5H4.5C3.33968 0.5 2.22688 0.960936 1.40641 1.78141C0.585936 2.60188 0.125 3.71468 0.125 4.875V31.125C0.125 32.2853 0.585936 33.3981 1.40641 34.2186C2.22688 35.0391 3.33968 35.5 4.5 35.5H39.5C40.6603 35.5 41.7731 35.0391 42.5936 34.2186C43.4141 33.3981 43.875 32.2853 43.875 31.125V4.875C43.875 3.71468 43.4141 2.60188 42.5936 1.78141C41.7731 0.960936 40.6603 0.5 39.5 0.5Z" fill="url(#paint0_linear_549_1427)"/>
<defs>
<linearGradient id="paint0_linear_549_1427" x1="0.125" y1="18" x2="43.875" y2="18" gradientUnits="userSpaceOnUse">
<stop stop-color="#FA5FA6"/>
<stop offset="1" stop-color="#1D95F8"/>
</linearGradient>
</defs>
</svg>
