<svg t="1681462971053" class="icon" viewBox="0 0 1024 1024" version="1.1" xmlns="http://www.w3.org/2000/svg" p-id="8194" width="200" height="200"><path d="M655.36 0H368.64C165.888 0 0 165.888 0 368.64v552.96c0 56.32 46.08 102.4 102.4 102.4h552.96c203.776 0 368.64-164.864 368.64-368.64V368.64c0-202.752-165.888-368.64-368.64-368.64zM366.08 344.064c28.16 0 51.2 23.04 51.2 51.2s-23.04 51.2-51.2 51.2-51.2-23.04-51.2-51.2 23.04-51.2 51.2-51.2z m331.264 262.656c0 90.112-86.528 163.328-176.128 163.328h-18.432c-90.112 0-176.128-73.216-176.128-163.328 0-29.184 24.064-53.248 53.248-53.248H645.12c28.672 0 52.224 23.552 52.224 53.248z m-39.424-160.256c-28.16 0-51.2-23.04-51.2-51.2s23.04-51.2 51.2-51.2 51.2 23.04 51.2 51.2-23.04 51.2-51.2 51.2z" fill="#DD6572" p-id="8195"></path></svg>
