<svg width="14" height="14" viewBox="0 0 18 18" fill="#fff" xmlns="http://www.w3.org/2000/svg" svg-inline="" role="presentation" focusable="false" tabindex="-1" class=""><path clip-rule="evenodd" d="M3.733 2.67a.982.982 0 111.363-1.412l2.121 2.046c.06.058.112.122.154.19h3.208a.99.99 0 01.153-.19l2.122-2.046a.982.982 0 011.363 1.413l-.853.823H14a4 4 0 014 4V13a4 4 0 01-4 4H4a4 4 0 01-4-4V7.494a4 4 0 014-4h.586l-.853-.823zM4 5.424a2 2 0 00-2 2v5.647a2 2 0 002 2h10a2 2 0 002-2V7.423a2 2 0 00-2-2H4zm1 3.894a1 1 0 012 0v.894a1 1 0 11-2 0v-.894zm7-1a1 1 0 00-1 1v.894a1 1 0 102 0v-.894a1 1 0 00-1-1z"></path></svg>
