<svg width="40" height="40" viewBox="0 0 16 20" fill="none" xmlns="http://www.w3.org/2000/svg">
<path d="M8 19.9249H7.75C7.66667 19.9249 7.59167 19.9082 7.525 19.8749C5.34167 19.1916 3.54167 17.8372 2.125 15.8119C0.708333 13.7872 0 11.5499 0 9.0999V4.3749C0 3.95824 0.121 3.58324 0.363 3.2499C0.604333 2.91657 0.916667 2.6749 1.3 2.5249L7.3 0.274902C7.53333 0.191569 7.76667 0.149902 8 0.149902C8.23333 0.149902 8.46667 0.191569 8.7 0.274902L14.7 2.5249C15.0833 2.6749 15.396 2.91657 15.638 3.2499C15.8793 3.58324 16 3.95824 16 4.3749V9.0999C16 11.5499 15.2917 13.7872 13.875 15.8119C12.4583 17.8372 10.6583 19.1916 8.475 19.8749C8.39167 19.9082 8.23333 19.9249 8 19.9249Z" fill="#000"/>
</svg>
