<svg width="83" height="83" viewBox="0 0 83 83" fill="none" xmlns="http://www.w3.org/2000/svg">
<path d="M14.0306 5.09024C9.56121 9.83032 7.35976 16.065 7.61913 22.0469C7.9239 29.0338 11.4935 35.6316 18.8047 39.2791L19.6152 39.6844V40.5922C19.6152 47.8871 23.36 56.8193 28.126 64.1305C30.4928 67.7779 33.1189 71.0363 35.583 73.5004C37.8363 75.7375 39.9762 77.2613 41.5 77.9098C43.0238 77.2613 45.1475 75.7375 47.4008 73.4842C49.8648 71.0201 52.491 67.7617 54.874 64.1143C59.6238 56.8031 63.3848 47.8871 63.3848 40.5922V39.6844L64.1953 39.2791C71.5064 35.6316 75.0728 29.0338 75.3808 22.0469C75.6402 16.065 73.4355 9.83032 68.9775 5.09024C69.1234 9.71846 69.4476 13.3416 68.8803 16.5352C68.1508 20.4906 65.7191 23.6356 60.3047 26.3428L59.5103 26.7318L58.7808 26.1969C58.4404 25.9375 58.1 25.7106 57.7596 25.4674C57.2246 26.6022 56.4789 27.6721 55.5062 28.6609C53.6906 30.4604 51.0644 30.4279 49.0705 29.6336C47.0766 28.8231 45.2285 27.2992 45.2285 25.0297V24.4299L45.65 23.9922C46.6226 23.0195 47.3846 22.1766 48.0168 21.366C43.7533 20.442 39.2629 20.442 34.9832 21.366C35.6154 22.1766 36.3773 23.0195 37.35 23.9922L37.7715 24.4299V25.0297C37.7715 27.2992 35.9234 28.8231 33.9295 29.6336C31.9355 30.4279 29.3094 30.4604 27.4937 28.6609C26.5211 27.6721 25.7754 26.6022 25.2404 25.4674C24.9 25.6943 24.5596 25.9375 24.2191 26.1969L23.4896 26.7318L22.6953 26.3428C17.2809 23.6356 14.846 20.4906 14.1278 16.5352C13.5475 13.3416 13.8782 9.71846 14.0306 5.09024ZM28.3205 13.635C27.7207 15.2804 27.2344 17.0053 27.0723 18.6912C26.7642 21.6416 27.3154 24.3488 29.5687 26.5859C30.3469 27.3803 31.6113 27.4127 32.8596 26.9102C33.7674 26.5535 34.4158 25.8889 34.6914 25.4188C32.4057 23.0357 31.0601 21.0256 30.1037 18.7885C29.4553 17.2809 28.9203 15.5625 28.3205 13.635ZM54.6795 13.635C54.0797 15.5576 53.5447 17.2809 52.8963 18.7885C51.9398 21.0256 50.5943 23.0357 48.3086 25.4188C48.5842 25.8889 49.2326 26.5535 50.1404 26.9102C51.3887 27.4127 52.6531 27.3803 53.4312 26.5859C55.6846 24.3488 56.2357 21.6416 55.9277 18.6912C55.7656 17.0053 55.2793 15.2804 54.6795 13.635ZM25.4836 31.2223L27.2506 34.7563C29.05 38.3551 32.3246 42.0998 35.891 44.7584L32.357 35.9397L35.0805 34.8697L40.0572 47.3197L40.3652 47.4656V47.6115H42.6348V47.4656L42.9428 47.3197L47.9195 34.8697L50.643 35.9397L47.109 44.7584C50.6754 42.0998 53.95 38.3551 55.7494 34.7563L57.5164 31.2223L61.1152 45.6014V45.7797C61.1152 46.7848 60.6937 47.7412 60.0939 48.4383C59.4779 49.1516 58.6998 49.6541 57.8406 50.0594C56.1385 50.8699 54.0635 51.2752 51.9885 51.4535C51.648 51.4859 51.3238 51.5022 50.9996 51.5184L48.2437 57.0139C49.8162 56.4303 51.6642 55.7008 53.9338 54.793L55.9277 53.9986V56.1547C55.9277 59.4779 53.723 62.8498 50.9672 65.6219C48.1951 68.3777 44.8232 70.5824 41.5 70.5824C38.1767 70.5824 34.8049 68.3777 32.0328 65.6219C29.2769 62.8498 27.0723 59.4779 27.0723 56.1547V53.9986L29.0662 54.793C31.3357 55.7008 33.1838 56.4303 34.7562 57.0139L32.0004 51.5184C31.6762 51.5022 31.3519 51.4859 31.0115 51.4535C28.9365 51.2752 26.8615 50.8699 25.1594 50.0594C24.3002 49.6541 23.5221 49.1516 22.906 48.4383C22.3062 47.7412 21.8848 46.7848 21.8848 45.7797V45.6014L25.4836 31.2223ZM26.5049 39.1656L24.8189 45.8932C24.8351 46.1039 24.9 46.2984 25.1107 46.5254C25.3539 46.8172 25.7916 47.1414 26.3914 47.417C27.6072 47.9844 29.4228 48.3897 31.2385 48.5356C32.9892 48.6815 34.7238 48.6166 35.9883 48.3897C32.3408 46.0877 28.9527 42.7807 26.5049 39.1656ZM56.4951 39.1656C54.0473 42.7807 50.6592 46.0877 47.0117 48.3897C48.2762 48.6166 50.0107 48.6815 51.7615 48.5356C53.5771 48.3897 55.3928 47.9844 56.6086 47.417C57.2084 47.1414 57.6461 46.8172 57.8892 46.5254C58.1 46.2984 58.1648 46.1039 58.181 45.8932L56.4951 39.1656ZM39.2467 50.5295L35.6803 52.3127L41.5 63.9684L47.3197 52.3127L43.7533 50.5295H39.2467ZM30.6062 58.5377C31.3033 60.1588 32.5516 61.9906 34.1078 63.5469C35.9396 65.3787 38.1605 66.8053 39.9437 67.3727L36.6043 60.71C34.8859 60.2074 32.9568 59.4779 30.6062 58.5377ZM52.3937 58.5377C50.0432 59.4779 48.1141 60.2074 46.3957 60.71L43.0562 67.3727C44.8394 66.8053 47.0603 65.3787 48.8922 63.5469C50.4484 61.9906 51.6967 60.1588 52.3937 58.5377Z" fill="url(#paint0_linear_100_432)"/>
<defs>
<linearGradient id="paint0_linear_100_432" x1="7.5986" y1="41.5" x2="75.4014" y2="41.5" gradientUnits="userSpaceOnUse">
<stop stop-color="#FA5FA6"/>
<stop offset="1" stop-color="#1D95F8"/>
</linearGradient>
</defs>
</svg>
