<svg width="40" height="40" viewBox="0 0 20 19" fill="none" xmlns="http://www.w3.org/2000/svg">
<path d="M5.0501 10.406L8.5841 13.942L7.1711 15.356L8.5861 16.771L7.1721 18.185L4.6971 15.71L1.8681 18.539L0.454102 17.125L3.2831 14.295L0.808102 11.821L2.2221 10.407L3.6361 11.82L5.0491 10.406H5.0501ZM1.0001 0L4.5461 0.00300002L16.3631 11.821L17.7781 10.407L19.1921 11.821L16.7181 14.296L19.5461 17.125L18.1321 18.539L15.3031 15.71L12.8281 18.185L11.4141 16.771L12.8281 15.356L1.0031 3.531L1.0001 0ZM15.4571 0L19.0001 0.00300002L19.0021 3.526L14.9491 7.578L11.4131 4.043L15.4571 0Z" fill="#000"/>
</svg>
