<svg version="1.1" id="_x32_" xmlns="http://www.w3.org/2000/svg" xmlns:xlink="http://www.w3.org/1999/xlink"
	 viewBox="0 0 512 512"  xml:space="preserve">
<g>
	<rect x="61.046" y="445.046" class="st0" width="389.908" height="66.954"/>
	<path class="st0" d="M168.453,191.47c7.362,0,12.092-4.339,12.092-11.17c0-6.7-4.73-11.031-12.092-11.031h-15.762
		c-0.523,0-0.784,0.262-0.784,0.784v20.631c0,0.523,0.261,0.785,0.784,0.785H168.453z"/>
	<path class="st0" d="M353.861,193.308c8.146,0,13.007-4.731,13.007-11.954s-4.861-12.085-13.007-12.085h-14.716
		c-0.523,0-0.785,0.262-0.785,0.784v22.47c0,0.523,0.262,0.784,0.785,0.784H353.861z"/>
	<path class="st0" d="M402.907,417.477l40.17-303.262L358.007,0H150.054L64.985,114.215l40.169,303.262H402.907z M319.046,153.9
		c0-0.792,0.523-1.315,1.315-1.315h34.677c19.446,0,31.138,11.692,31.138,28.77c0,16.815-11.823,28.638-31.138,28.638h-15.892
		c-0.523,0-0.785,0.262-0.785,0.785v29.824c0,0.792-0.531,1.315-1.315,1.315h-16.685c-0.792,0-1.315-0.523-1.315-1.315V153.9z
		 M284.361,224.839c0-0.792,0.523-1.315,1.308-1.315h15.638c0.784,0,1.315,0.523,1.315,1.315v15.762
		c0,0.792-0.531,1.315-1.315,1.315h-15.638c-0.785,0-1.308-0.523-1.308-1.315V224.839z M248.615,153.9
		c0-0.792,0.523-1.315,1.315-1.315h16.685c0.785,0,1.315,0.523,1.315,1.315v86.701c0,0.792-0.53,1.315-1.315,1.315H249.93
		c-0.792,0-1.315-0.523-1.315-1.315V153.9z M213.93,224.839c0-0.792,0.523-1.315,1.308-1.315h15.638
		c0.784,0,1.315,0.523,1.315,1.315v15.762c0,0.792-0.531,1.315-1.315,1.315h-15.638c-0.785,0-1.308-0.523-1.308-1.315V224.839z
		 M132.592,153.9c0-0.792,0.523-1.315,1.316-1.315h35.6c18.262,0,30.346,11.431,30.346,27.716c0,11.431-6.046,20.5-15.892,24.83
		l17.6,35.208c0.392,0.792,0,1.577-0.915,1.577h-18.662c-1.177,0-1.569-0.392-1.969-1.315l-15.369-32.708h-11.954
		c-0.523,0-0.784,0.262-0.784,0.785v31.924c0,0.792-0.531,1.315-1.316,1.315h-16.684c-0.792,0-1.316-0.523-1.316-1.315V153.9z"/>
</g>
</svg>
