<svg width="100" height="100" viewBox="0 0 100 100" fill="none" xmlns="http://www.w3.org/2000/svg">
<path d="M12.375 78.375C10.1063 78.375 8.16475 77.5679 6.5505 75.9536C4.93625 74.3394 4.12775 72.3965 4.125 70.125V28.875C4.125 26.6063 4.9335 24.6647 6.5505 23.0505C8.1675 21.4362 10.109 20.6278 12.375 20.625H53.625C55.8938 20.625 57.8366 21.4335 59.4536 23.0505C61.0706 24.6675 61.8778 26.609 61.875 28.875V70.125C61.875 72.3938 61.0679 74.3366 59.4536 75.9536C57.8394 77.5706 55.8965 78.3778 53.625 78.375H12.375ZM70.125 78.375V20.625H78.375V78.375H70.125ZM86.625 78.375V20.625H94.875V78.375H86.625Z" fill="#9FA0A0"/>
</svg>
