<svg width="100" height="100" viewBox="0 0 100 100" fill="none" xmlns="http://www.w3.org/2000/svg">
<rect width="99" height="8" transform="translate(0 91)" fill="white"/>
<path d="M74 23H25C21.15 23 18 25.65 18 28.8889V70.1111C18 73.35 21.15 76 25 76H74C77.85 76 81 73.35 81 70.1111V28.8889C81 25.65 77.85 23 74 23ZM32 34.7778H39V40.6667H32V34.7778ZM32 46.5556H39V52.4444H32V46.5556ZM32 58.3333H39V64.2222H32V58.3333ZM67 64.2222H46V58.3333H67V64.2222ZM67 52.4444H46V46.5556H67V52.4444ZM67 40.6667H46V34.7778H67V40.6667Z" fill="white"/>
</svg>
