<svg width="100" height="100" viewBox="0 0 100 100" fill="none" xmlns="http://www.w3.org/2000/svg">
<path d="M31.7188 50C38.7086 50 44.375 44.3336 44.375 37.3438C44.375 30.3539 38.7086 24.6875 31.7188 24.6875C24.7289 24.6875 19.0625 30.3539 19.0625 37.3438C19.0625 44.3336 24.7289 50 31.7188 50Z" fill="white"/>
<path d="M46.1328 57.0312C41.1828 54.5176 35.7195 53.5156 31.7188 53.5156C23.8824 53.5156 7.8125 58.3215 7.8125 67.9297V75.3125H34.1797V72.4877C34.1797 69.1479 35.5859 65.7992 38.0469 63.0078C40.0104 60.7789 42.7596 58.71 46.1328 57.0312Z" fill="white"/>
<path d="M64.7656 55.625C55.6127 55.625 37.3438 61.2781 37.3438 72.5V80.9375H92.1875V72.5C92.1875 61.2781 73.9186 55.625 64.7656 55.625Z" fill="white"/>
<path d="M64.7656 50C73.3088 50 80.2344 43.0744 80.2344 34.5312C80.2344 25.9881 73.3088 19.0625 64.7656 19.0625C56.2225 19.0625 49.2969 25.9881 49.2969 34.5312C49.2969 43.0744 56.2225 50 64.7656 50Z" fill="white"/>
<rect width="99" height="8" transform="translate(0 91)" fill="white"/>
</svg>
