<svg width="100" height="100" viewBox="0 0 100 100" fill="none" xmlns="http://www.w3.org/2000/svg">
<rect width="99" height="8" transform="translate(0 91)" fill="white"/>
<g clip-path="url(#clip0_265_9624)">
<path d="M34 31.75C34 33.275 34.6159 34.7375 35.7123 35.8159C36.8086 36.8942 38.2956 37.5 39.8461 37.5C41.3966 37.5 42.8836 36.8942 43.98 35.8159C45.0764 34.7375 45.6923 33.275 45.6923 31.75C45.6923 30.225 45.0764 28.7625 43.98 27.6841C42.8836 26.6058 41.3966 26 39.8461 26C38.2956 26 36.8086 26.6058 35.7123 27.6841C34.6159 28.7625 34 30.225 34 31.75ZM60.3077 49C60.3077 50.525 60.9236 51.9875 62.02 53.0659C63.1163 54.1442 64.6033 54.75 66.1538 54.75C67.7043 54.75 69.1913 54.1442 70.2877 53.0659C71.3841 51.9875 72 50.525 72 49C72 47.475 71.3841 46.0125 70.2877 44.9341C69.1913 43.8558 67.7043 43.25 66.1538 43.25C64.6033 43.25 63.1163 43.8558 62.02 44.9341C60.9236 46.0125 60.3077 47.475 60.3077 49ZM34 66.25C34 67.775 34.6159 69.2375 35.7123 70.3159C36.8086 71.3942 38.2956 72 39.8461 72C41.3966 72 42.8836 71.3942 43.98 70.3159C45.0764 69.2375 45.6923 67.775 45.6923 66.25C45.6923 64.725 45.0764 63.2625 43.98 62.1841C42.8836 61.1058 41.3966 60.5 39.8461 60.5C38.2956 60.5 36.8086 61.1058 35.7123 62.1841C34.6159 63.2625 34 64.725 34 66.25Z" fill="white" stroke="white" stroke-width="2" stroke-linejoin="round"/>
<path d="M21 66H33.825M46 66H78M21 33H33.825M46 33H78" stroke="white" stroke-width="2" stroke-linecap="round"/>
<path d="M21 21V78" stroke="white" stroke-width="4" stroke-linecap="round" stroke-linejoin="round"/>
<path d="M21 49H59.475M72 49H78" stroke="white" stroke-width="2" stroke-linecap="round"/>
</g>
<defs>
<clipPath id="clip0_265_9624">
<rect width="57.5" height="57.5" fill="white" transform="translate(21 21)"/>
</clipPath>
</defs>
</svg>
