<svg width="191" height="108" viewBox="0 0 191 108" fill="none" xmlns="http://www.w3.org/2000/svg">
<g id="JCL_tittle 1">
<g id="#000000ff">
<path id="Vector" d="M77.6265 41.895C78.6561 41.796 79.7007 41.8605 80.7363 41.859C80.9855 41.8185 81.2033 42.036 81.1332 42.2895C80.8691 44.697 80.5438 47.1 80.2692 49.5075C80.2334 49.782 80.2021 50.211 79.838 50.2275C78.9382 50.2845 78.0354 50.235 77.1356 50.2545C76.9148 50.2275 76.6313 50.2905 76.4746 50.091C76.4209 49.854 76.4671 49.611 76.4895 49.374C76.7745 47.112 77.0476 44.85 77.3162 42.5865C77.3609 42.342 77.3535 42.006 77.6265 41.895Z" fill="white"/>
<path id="Vector_2" d="M34.2531 44.8665C34.2546 44.58 34.4427 44.2785 34.7605 44.3085C35.9513 44.2905 37.1435 44.2905 38.3328 44.3085C38.5447 44.2755 38.7745 44.46 38.7237 44.6865C38.6029 45.96 38.4134 47.2275 38.2716 48.4995C39.6713 48.501 41.0724 48.4995 42.4721 48.501C42.3632 49.3995 42.2543 50.2995 42.1438 51.1995C40.7427 51.1995 39.343 51.1995 37.9433 51.1995C37.7658 52.5855 37.618 53.9745 37.4315 55.3575C37.4345 55.665 37.1614 55.8885 36.863 55.845C35.6245 55.8345 34.38 55.9005 33.1459 55.809C33.1057 55.77 33.0251 55.6905 32.9848 55.6515C32.9654 55.146 33.0669 54.6495 33.1221 54.15C33.5011 51.0555 33.8756 47.961 34.2531 44.8665Z" fill="white"/>
<path id="Vector_3" d="M45.3207 44.718C45.3341 44.454 45.5102 44.184 45.8056 44.211C46.9994 44.19 48.1946 44.1885 49.3884 44.2125C49.6465 44.19 49.7972 44.4525 49.7256 44.682C49.4526 47.073 49.1437 49.4595 48.8587 51.849C50.5299 51.852 52.1997 51.8505 53.8709 51.8475C54.0888 51.861 54.3708 51.819 54.4991 52.0515C54.4932 52.6965 54.4096 53.343 54.2753 53.973C54.1798 54.267 53.8247 54.243 53.5799 54.252C51.9087 54.2505 50.2389 54.249 48.5677 54.2505C48.3633 55.917 48.1618 57.5835 47.9589 59.25C48.3737 59.25 48.7885 59.2485 49.2034 59.25C49.3451 58.14 49.4615 57.0255 49.6122 55.917C49.6152 55.6335 49.8286 55.374 50.127 55.407C50.9567 55.3995 51.7923 55.368 52.622 55.425C52.9458 55.4595 52.8906 55.8615 52.8577 56.094C52.6235 57.891 52.4369 59.6955 52.1862 61.491C52.1758 61.7745 51.8893 61.914 51.6371 61.896C50.3031 61.9125 48.9691 61.893 47.6366 61.9005C47.4918 63.0825 47.3471 64.266 47.2038 65.4495C48.1364 65.4615 49.0706 65.43 50.0032 65.457C50.221 65.427 50.4732 65.598 50.4105 65.844C50.3523 66.516 50.2837 67.1895 50.1613 67.8525C50.1002 68.217 49.6689 68.2005 49.3899 68.2005C47.2471 68.1885 45.1043 68.205 42.9615 68.193C42.7392 68.22 42.4557 68.07 42.5199 67.806C42.7243 65.8605 42.9944 63.921 43.2152 61.977C43.0317 61.8615 42.6437 61.818 42.7168 61.5105C42.7676 60.8775 42.8362 60.2445 42.9496 59.6205C42.9779 59.307 43.3391 59.2905 43.5614 59.181C43.7539 57.5385 43.9598 55.8975 44.1583 54.2565C43.7613 54.183 43.1496 54.435 42.9227 53.997C42.9451 53.3565 43.0182 52.713 43.163 52.089C43.451 51.687 44.0314 51.903 44.4507 51.8445C44.7432 49.47 45.0252 47.0925 45.3207 44.718Z" fill="white"/>
<path id="Vector_4" d="M102.868 45.027C102.918 44.61 103.407 44.646 103.717 44.646C104.805 44.673 105.896 44.604 106.981 44.6805C107.267 44.7525 107.193 45.0675 107.179 45.285C107.051 46.3905 106.905 47.4945 106.775 48.6C107.59 48.6225 108.409 48.5505 109.222 48.6315C109.619 48.936 109.297 49.5255 109.315 49.95C109.194 50.358 109.362 51.0285 108.879 51.216C108.073 51.3015 107.261 51.225 106.454 51.2505C105.759 56.916 105.078 62.583 104.38 68.2485C104.375 68.526 104.155 68.7705 103.865 68.7375C102.668 68.7435 101.469 68.7795 100.275 68.7195C99.9646 68.688 100.015 68.313 100.044 68.097C100.73 62.481 101.412 56.8665 102.095 51.2505C101.267 51.219 100.432 51.3165 99.6094 51.204C99.5721 51.1545 99.496 51.054 99.4587 51.0045C99.4766 50.346 99.5796 49.692 99.6781 49.0425C99.6855 48.813 99.8676 48.606 100.105 48.6135C100.875 48.5715 101.648 48.6135 102.419 48.5985C102.579 47.409 102.68 46.212 102.868 45.027Z" fill="white"/>
<path id="Vector_5" d="M82.9805 45.009C83.4118 44.901 83.8624 44.9595 84.3041 44.9475C88.9329 44.952 93.5631 44.9505 98.1919 44.9475C98.4277 44.9385 98.847 44.9535 98.8082 45.2925C98.744 46.128 98.6321 46.9605 98.5142 47.79C98.4918 48.1005 98.171 48.225 97.9009 48.198C93.0245 48.2055 88.1465 48.192 83.27 48.2055C82.9984 48.1755 82.6314 48.2775 82.4613 47.997C82.4598 47.2395 82.6194 46.494 82.6896 45.7425C82.7403 45.489 82.709 45.144 82.9805 45.009Z" fill="white"/>
<path id="Vector_6" d="M51.3775 45.651C52.1012 45.5355 52.8428 45.624 53.574 45.5955C53.8172 45.624 54.1425 45.5325 54.3066 45.7755C54.3693 46.3695 54.2037 46.962 54.1529 47.553C54.0395 48.2415 54.0529 48.9555 53.8545 49.626C53.8127 49.6665 53.7291 49.749 53.6889 49.7895C52.9666 49.923 52.219 49.8225 51.4879 49.854C51.2267 49.824 50.8791 49.92 50.7239 49.6425C50.7478 48.639 50.9582 47.6505 51.0432 46.65C51.1208 46.32 51.0357 45.8505 51.3775 45.651Z" fill="white"/>
<path id="Vector_7" d="M110.831 46.809C110.841 46.521 110.955 46.14 111.313 46.1625C115.243 46.1295 119.177 46.164 123.108 46.146C123.365 46.1715 123.701 46.0845 123.865 46.35C123.855 47.0505 123.749 47.7495 123.634 48.4395C123.598 48.7665 123.225 48.813 122.964 48.801C120.378 48.801 117.792 48.7995 115.206 48.7995C115.015 50.349 114.827 51.9 114.64 53.4495C116.817 53.4495 118.994 53.4525 121.172 53.4465C121.41 53.4615 121.725 53.406 121.842 53.6835C121.795 54.426 121.737 55.1835 121.548 55.905C121.01 56.304 120.236 56.019 119.606 56.1C118.993 61.1625 118.371 66.225 117.76 71.289C117.743 71.5755 117.631 71.9595 117.274 71.9355C116.329 71.9595 115.383 71.955 114.439 71.937C114.146 71.9775 113.972 71.6745 114.063 71.4165C114.678 66.3105 115.304 61.206 115.925 56.1C115.388 56.1 114.852 56.1 114.316 56.1C113.839 60.048 113.35 63.9945 112.879 67.9425C112.845 68.2605 112.803 68.757 112.371 68.7345C111.122 68.7585 109.873 68.754 108.625 68.7375C108.337 68.7885 108.14 68.511 108.227 68.247C109.083 61.0995 109.967 53.955 110.831 46.809Z" fill="white"/>
<path id="Vector_8" d="M69.5508 48.4395C69.5732 48.162 69.6478 47.766 70.0015 47.766C71.231 47.7375 72.4666 47.7345 73.6961 47.7675C74.005 47.775 74.0184 48.1365 73.9737 48.3645C73.3768 53.2425 72.7859 58.122 72.1905 63C73.441 63.0225 74.6944 62.955 75.9434 63.0285C75.9941 63.0615 76.0986 63.1275 76.1508 63.1605C76.2075 63.8625 76.018 64.563 75.9658 65.2635C75.912 65.5755 75.9344 66.099 75.5062 66.129C74.2736 66.1845 73.0396 66.1305 71.807 66.1515C71.619 67.6965 71.4295 69.243 71.2445 70.7895C71.2072 71.049 71.1773 71.442 70.8431 71.4735C69.7105 71.532 68.5735 71.4795 67.4409 71.499C67.1827 71.5125 66.7455 71.4855 66.8067 71.1135C66.9753 69.456 67.2081 67.806 67.3976 66.15C62.4361 66.1485 57.4731 66.1515 52.5116 66.1485C52.3012 66.1485 51.9415 66.138 51.9535 65.844C51.9997 65.037 52.1146 64.233 52.2295 63.435C52.237 63.1365 52.528 62.9685 52.801 63.003C57.7939 62.9955 62.7882 63.003 67.7811 63C68.372 58.146 68.9674 53.2935 69.5508 48.4395Z" fill="white"/>
<path id="Vector_9" d="M133.321 48.0495C133.421 47.694 133.857 47.76 134.14 47.745C135.332 47.766 136.526 47.7225 137.718 47.7645C138 47.748 138.097 48.063 138.033 48.294C137.374 53.763 136.702 59.2305 136.04 64.6995C136.817 64.6995 137.595 64.6995 138.372 64.6995C138.566 63.2265 138.709 61.746 138.923 60.276C138.933 59.8845 139.361 59.82 139.667 59.847C140.859 59.8665 142.055 59.8155 143.245 59.8725C143.554 59.88 143.536 60.249 143.507 60.471C143.241 62.6175 142.981 64.767 142.72 66.915C142.711 67.1955 142.549 67.518 142.223 67.4865C139.033 67.5135 135.843 67.488 132.652 67.497C132.166 67.4895 131.677 67.536 131.195 67.464C130.887 67.3725 131.004 66.987 131.013 66.7545C131.717 61.0515 132.403 55.347 133.1 49.6425C133.173 49.1115 133.194 48.5715 133.321 48.0495Z" fill="white"/>
<path id="Vector_10" d="M139.285 48.045C139.361 47.7525 139.708 47.7495 139.951 47.748C141.455 47.751 142.961 47.7495 144.465 47.748C144.674 47.757 144.972 47.736 145.042 47.9985C145.014 48.9555 144.823 49.899 144.677 50.8425C144.497 52.245 144.344 53.652 144.16 55.0545C144.159 55.326 143.977 55.611 143.678 55.5885C142.349 55.6095 141.015 55.611 139.685 55.587C139.393 55.6185 139.266 55.3005 139.342 55.059C139.515 53.547 139.711 52.038 139.891 50.5275C139.603 50.4525 139.155 50.6055 139.02 50.2515C139.057 49.512 139.146 48.771 139.285 48.045Z" fill="white"/>
<path id="Vector_11" d="M148.949 48.153C148.949 47.8515 149.201 47.607 149.507 47.655C150.805 47.6505 152.105 47.6325 153.403 47.664C153.743 47.6535 153.752 48.0375 153.701 48.285C153.078 53.406 152.454 58.5285 151.832 63.6495C152.434 63.651 153.04 63.648 153.646 63.651C153.501 64.8315 153.357 66.0135 153.215 67.1955C151.138 67.185 149.061 67.224 146.985 67.185C146.589 67.1805 146.679 66.7125 146.706 66.4485C147.473 60.3525 148.194 54.249 148.949 48.153Z" fill="white"/>
<path id="Vector_12" d="M57.2179 48.834C57.5179 48.693 57.873 48.765 58.1968 48.7455C59.0294 48.777 59.8681 48.696 60.6977 48.786C60.9961 48.882 60.8753 49.257 60.8723 49.488C60.6485 51.2475 60.4455 53.0085 60.2247 54.768C60.2247 55.0605 60.0009 55.329 59.692 55.293C58.6295 55.2885 57.5582 55.35 56.5002 55.26C56.4569 55.2105 56.3719 55.11 56.3301 55.059C56.4166 53.7465 56.6405 52.443 56.7792 51.1335C56.8896 50.4135 56.8941 49.674 57.0881 48.9705C57.1209 48.936 57.1851 48.8685 57.2179 48.834Z" fill="white"/>
<path id="Vector_13" d="M78.5771 51.6495C78.6487 51.3615 78.9859 51.3465 79.2247 51.348C85.0964 51.3525 90.9682 51.3465 96.8399 51.351C97.1667 51.285 97.4115 51.579 97.304 51.894C96.7668 56.247 96.2326 60.6 95.7118 64.9545C95.6745 65.214 95.6357 65.5965 95.3045 65.625C92.7349 65.727 90.1639 65.5515 87.5929 65.6055C87.3183 65.574 86.9438 65.676 86.7736 65.3925C86.7811 64.686 86.8945 63.9825 87.0005 63.285C87.0049 62.988 87.2944 62.8185 87.566 62.853C88.7224 62.838 89.8789 62.8575 91.0368 62.85C91.3935 59.9175 91.7501 56.985 92.1082 54.0525C90.24 54.048 88.3733 54.051 86.5065 54.051C86.1992 56.589 85.8813 59.127 85.5844 61.6665C85.5501 61.839 85.55 62.0265 85.462 62.1855C83.1581 65.334 80.8989 68.5185 78.6039 71.6745C78.4592 71.9265 78.1413 72.0435 77.8981 71.8545C77.1132 71.391 76.3179 70.9425 75.5569 70.4415C75.2689 70.2585 75.4897 69.921 75.6375 69.726C77.546 67.095 79.4351 64.449 81.3451 61.8195C81.5644 61.4925 81.8778 61.1895 81.9002 60.7725C82.1762 58.5315 82.4448 56.2905 82.7194 54.051C81.3167 54.0225 79.9081 54.102 78.5084 54.015C78.4637 53.976 78.3711 53.898 78.3249 53.859C78.3383 53.118 78.4413 52.3755 78.5771 51.6495Z" fill="white"/>
<path id="Vector_14" d="M107.203 53.0415C107.702 52.962 108.224 52.9635 108.724 53.0475C108.989 53.2275 108.84 53.5665 108.84 53.829C108.348 57.789 107.873 61.752 107.39 65.7135C107.367 65.9535 107.27 66.27 106.979 66.2775C106.538 66.3225 106.087 66.3315 105.648 66.2685C105.369 66.246 105.393 65.916 105.419 65.7195C105.902 61.7055 106.399 57.6945 106.879 53.6805C106.917 53.448 106.93 53.1225 107.203 53.0415Z" fill="white"/>
<path id="Vector_15" d="M99.2737 53.1345C99.7751 52.974 100.335 53.034 100.854 53.088C101.169 53.223 100.994 53.601 101.003 53.8605C100.505 57.8565 100.038 61.857 99.5333 65.853C99.5333 66.42 98.8738 66.3645 98.4813 66.3615C98.1292 66.3615 97.4368 66.4245 97.5741 65.868C98.0426 61.863 98.553 57.8625 99.0245 53.859C99.0797 53.6145 99.0439 53.295 99.2737 53.1345Z" fill="white"/>
<path id="Vector_16" d="M124.887 55.3485C124.89 55.0785 125.06 54.789 125.36 54.8115C126.64 54.7905 127.925 54.789 129.206 54.813C129.592 54.777 129.598 55.23 129.537 55.5C128.75 61.7955 128.03 68.1015 127.213 74.391C124.365 78.261 121.582 82.1895 118.762 86.085C118.469 86.4495 118.26 86.9115 117.863 87.174C116.116 87.2385 114.361 87.1815 112.611 87.1995C113.681 85.8255 114.594 84.342 115.631 82.9455C117.264 80.682 118.895 78.42 120.525 76.1565C121.236 75.1275 122.028 74.1525 122.692 73.095C123.023 70.9995 123.216 68.877 123.495 66.771C123.96 62.964 124.417 59.154 124.887 55.3485Z" fill="#FF69B4"/>
<path id="Vector_17" d="M59.8262 58.2735C61.6527 57.321 63.4806 56.3685 65.307 55.4175C65.0758 57.321 64.8445 59.226 64.6117 61.131C63.0165 60.1785 61.4214 59.226 59.8262 58.2735Z" fill="white"/>
<path id="Vector_18" d="M29.7378 56.754C30.2093 56.649 30.6987 56.7105 31.1777 56.6985C32.0268 56.724 32.8803 56.6535 33.7279 56.7285C34.0502 56.82 33.9219 57.2025 33.9189 57.4455C33.4876 60.849 33.1012 64.26 32.661 67.662C32.658 68.043 32.2447 68.1255 31.9447 68.1C30.7972 68.0805 29.6468 68.13 28.5008 68.0775C28.2023 68.079 28.1874 67.722 28.2307 67.509C28.6336 64.149 29.0529 60.789 29.4513 57.429C29.4975 57.192 29.4886 56.88 29.7378 56.754Z" fill="white"/>
<path id="Vector_19" d="M35.5483 57.018C35.5901 56.7705 35.8692 56.6895 36.084 56.703C37.6822 56.6895 39.2803 56.7105 40.8784 56.694C41.1157 56.7045 41.3634 56.679 41.5917 56.7615C41.8081 56.9115 41.7021 57.1965 41.7021 57.4155C41.2828 60.7755 40.8859 64.137 40.4696 67.497C40.4606 67.7655 40.3323 68.0985 40.01 68.0835C37.912 68.118 35.8095 68.088 33.71 68.0985C33.4981 68.0985 33.137 68.091 33.1489 67.794C33.1653 67.1955 33.2608 66.603 33.3414 66.0105C33.3608 65.796 33.4667 65.5335 33.7174 65.5245C34.5441 65.4585 35.3738 65.52 36.2019 65.499C36.4511 63.4485 36.7018 61.3995 36.951 59.349C36.4526 59.34 35.9468 59.394 35.4543 59.3055C35.4155 59.2545 35.3365 59.154 35.2977 59.103C35.3305 58.404 35.4111 57.7035 35.5483 57.018Z" fill="white"/>
<path id="Vector_20" d="M155.161 63.7005C156.15 64.29 157.139 64.881 158.129 65.4735C156.996 66.0645 155.863 66.657 154.729 67.2465C154.87 66.063 155.014 64.8825 155.161 63.7005Z" fill="white"/>
<path id="Vector_21" d="M159.828 63.699C160.818 64.29 161.808 64.881 162.798 65.4735C161.662 66.0645 160.531 66.657 159.395 67.2465C159.539 66.0645 159.683 64.881 159.828 63.699Z" fill="white"/>
</g>
</g>
</svg>
