<svg t="1695478663863" class="icon" viewBox="0 0 1024 1024" version="1.1" xmlns="http://www.w3.org/2000/svg" p-id="1662" width="64" height="64"><path d="M511.936 176A264.32 264.32 0 0 0 248 439.936c0 140.48 236.608 390.016 246.656 400.64 4.48 4.736 10.88 7.424 17.408 7.424h0.512a23.232 23.232 0 0 0 17.536-8.256l81.92-93.76C720.96 612.672 776 509.76 776 440.064A264.32 264.32 0 0 0 512 176z m0 383.936a119.936 119.936 0 1 1 0-240 119.936 119.936 0 1 1 0 240z" fill="#333333" p-id="1663"></path></svg>