<svg width="83" height="83" viewBox="0 0 83 83" fill="none" xmlns="http://www.w3.org/2000/svg">
<path d="M50.4668 4.15405L46.7382 5.88149L41.9508 25.8261L51.8094 7.67507L50.4671 4.15405H50.4668ZM9.66578 8.11033C11.5216 20.5825 17.5167 31.0363 25.9072 39.8432C28.2281 38.2726 30.5365 36.6837 32.8322 35.0764C29.2405 30.6486 26.6963 25.9652 25.7653 21.0896C20.2189 16.795 14.8046 12.4369 9.66594 8.11049L9.66578 8.11033ZM72.9646 8.11552C67.9527 12.3365 62.678 16.5887 57.2749 20.7857C55.5998 30.2259 47.8584 38.9539 38.1106 46.5001C27.5033 54.7116 14.3519 61.5656 3.21172 66.1812L3.2114 71.4951C18.3929 65.962 34.9119 58.303 48.0954 47.7312C60.9077 37.457 70.5199 24.5391 72.9646 8.11552ZM34.6812 9.63027L33.3033 14.139L39.8992 25.9827L38.7847 12.1532L34.6812 9.63027ZM53.2732 23.8656C36.2136 36.875 18.1979 49.0968 3.21172 57.6955V62.8984C13.8975 58.3733 26.3253 51.7923 36.2567 44.1038C44.3347 37.8506 50.6556 30.8898 53.2734 23.8656H53.2732ZM29.8382 24.2149C31.0297 27.2772 32.9231 30.3232 35.3499 33.3033C36.4895 32.496 37.6285 31.6773 38.7694 30.8564C35.7795 28.675 32.7936 26.4601 29.8382 24.2149ZM57.1689 43.7241C55.617 45.2596 53.9948 46.7374 52.3208 48.1667C61.2229 54.2125 71.3246 59.3776 80.1884 63.1061V58.066C73.0783 54.0152 65.2576 49.1289 57.1689 43.7241ZM49.8892 50.1777C48.0006 51.6886 46.0478 53.1367 44.0484 54.5295C55.4489 61.8463 68.2562 67.4618 80.1882 71.7739V66.3887C70.6468 62.4619 59.5841 56.8685 49.889 50.1777H49.8892ZM40.3855 58.6128L32.898 71.2978L34.1646 75.1225L38.6631 73.2835L40.3855 58.6128ZM42.954 58.7444L51.2822 75.7051L57.1943 77.3716L56.6216 72.1894L42.9541 58.7444H42.954Z" fill="url(#paint0_linear_100_440)"/>
<defs>
<linearGradient id="paint0_linear_100_440" x1="3.2114" y1="40.7628" x2="80.1884" y2="40.7628" gradientUnits="userSpaceOnUse">
<stop stop-color="#FA5FA6"/>
<stop offset="1" stop-color="#1D95F8"/>
</linearGradient>
</defs>
</svg>
