<?xml version="1.0" standalone="no"?><!DOCTYPE svg PUBLIC "-//W3C//DTD SVG 1.1//EN" "http://www.w3.org/Graphics/SVG/1.1/DTD/svg11.dtd"><svg t="1695701699857" class="icon" viewBox="0 0 1024 1024" version="1.1" xmlns="http://www.w3.org/2000/svg" p-id="5543" xmlns:xlink="http://www.w3.org/1999/xlink" width="200" height="200"><path d="M838.8 875H191.6c-26.3 0-47.7-21.4-47.7-47.7V376.7c0-26.3 21.4-47.7 47.7-47.7h647.1c26.3 0 47.7 21.4 47.7 47.7v450.6c0.1 26.3-21.3 47.7-47.6 47.7z" fill="#1afa29" p-id="5544" data-spm-anchor-id="a313x.search_index.0.i7.69a23a81dyZsfR" class="selected"></path><path d="M838.8 893.4H191.6c-36.5 0-66.1-29.7-66.1-66.2V376.7c0-36.5 29.7-66.1 66.1-66.1h647.1c36.5 0 66.1 29.7 66.1 66.1v450.6c0.1 36.5-29.6 66.1-66 66.1z m-647.2-546c-16.1 0-29.3 13.1-29.3 29.3v450.6c0 16.1 13.1 29.3 29.3 29.3h647.1c16.1 0 29.3-13.1 29.3-29.3V376.7c0-16.1-13.1-29.3-29.3-29.3H191.6z" fill="#840000" p-id="5545"></path><path d="M143.9 514.2h742.6" fill="#FFAC33" p-id="5546"></path><path d="M143.9 495.8h742.5v36.9H143.9z" fill="#840000" p-id="5547"></path><path d="M553.4 488.6v-99.5c34.3 0 62.5-26.4 65.2-60.1H411.7c2.8 33.6 30.9 60.1 65.2 60.1v99.5c-41.6 15.5-71.2 55.5-71.2 102.5 0 60.5 49 109.5 109.5 109.5s109.5-49 109.5-109.5c-0.1-47-29.7-87-71.3-102.5z" fill="#FFAC33" p-id="5548"></path><path d="M515.2 719c-70.5 0-127.9-57.4-127.9-127.9 0-48.7 28.2-93.2 71.2-114.5v-71.1c-34.9-8-62.1-38-65.2-74.9l-1.6-20h247l-1.6 20c-3 36.9-30.3 66.9-65.2 74.9v71.1c43.1 21.4 71.2 65.9 71.2 114.5 0 70.5-57.4 127.9-127.9 127.9z m-78.7-371.6c8.3 13.9 23.5 23.2 40.5 23.2h18.4v130.8l-12 4.5c-35.4 13.2-59.3 47.5-59.3 85.2 0 50.2 40.8 91 91 91s91-40.8 91-91c0-37.7-23.8-72-59.3-85.2l-12-4.5V370.6h18.4c17 0 32.2-9.3 40.5-23.2H436.5z" fill="#840000" p-id="5549"></path><path d="M515.2 591.1m-38.2 0a38.2 38.2 0 1 0 76.4 0 38.2 38.2 0 1 0-76.4 0Z" fill="#FF4633" p-id="5550"></path><path d="M515.2 647.7c-31.2 0-56.7-25.4-56.7-56.7 0-31.2 25.4-56.7 56.7-56.7 31.2 0 56.7 25.4 56.7 56.7-0.1 31.3-25.5 56.7-56.7 56.7z m0-76.4c-10.9 0-19.8 8.9-19.8 19.8s8.9 19.8 19.8 19.8S535 602 535 591.1s-8.9-19.8-19.8-19.8z" fill="#840000" p-id="5551"></path><path d="M143.9 376.7v74.5c0.8 0 1.7 0.1 2.5 0.1 66.1 0 119.8-53.6 119.8-119.8 0-0.9-0.1-1.7-0.1-2.5h-74.5c-26.3 0-47.7 21.4-47.7 47.7z" fill="#FFAC33" p-id="5552"></path><path d="M146.4 469.7c-0.9 0-1.8 0-2.7-0.1l-18.1-0.4-0.2-18.1v-74.5c0-36.5 29.7-66.1 66.1-66.1H284l0.4 18.1c0.1 1.1 0.1 2 0.1 2.9 0.1 76.2-61.9 138.2-138.1 138.2z m45.2-122.3c-16.1 0-29.3 13.1-29.3 29.3v54.9c43.2-6.8 77.3-41 84.2-84.1h-54.9z" fill="#840000" p-id="5553"></path><path d="M886.5 376.7v74.5c-0.8 0-1.7 0.1-2.5 0.1-66.1 0-119.8-53.6-119.8-119.8 0-0.9 0.1-1.7 0.1-2.5h74.5c26.3 0 47.7 21.4 47.7 47.7z" fill="#FFAC33" p-id="5554"></path><path d="M883.9 469.7c-76.2 0-138.2-62-138.2-138.2 0-0.9 0-1.8 0.1-2.7l0.4-18.1 18.1-0.2h74.5c36.5 0 66.1 29.7 66.1 66.1v92.5l-18.1 0.4c-1.1 0.2-2 0.2-2.9 0.2z m-100-122.3c6.8 43.2 41 77.3 84.1 84.2v-54.9c0-16.1-13.1-29.3-29.3-29.3h-54.8z" fill="#840000" p-id="5555"></path><path d="M143.9 827.3v-74.5c0.8 0 1.7-0.1 2.5-0.1 66.1 0 119.8 53.6 119.8 119.8 0 0.9-0.1 1.7-0.1 2.5h-74.5c-26.3 0-47.7-21.4-47.7-47.7z" fill="#FFAC33" p-id="5556"></path><path d="M266.1 893.4h-74.5c-36.5 0-66.1-29.7-66.1-66.2v-92.5l18.1-0.4c1.1-0.1 2-0.1 2.9-0.1 76.2 0 138.2 62 138.2 138.2 0 0.9 0 1.8-0.1 2.7l-0.4 18.1-18.1 0.2z m-103.8-121v54.9c0 16.1 13.1 29.3 29.3 29.3h54.9c-6.9-43.2-41-77.4-84.2-84.2z" fill="#840000" p-id="5557"></path><path d="M886.5 827.3v-74.5c-0.8 0-1.7-0.1-2.5-0.1-66.1 0-119.8 53.6-119.8 119.8 0 0.9 0.1 1.7 0.1 2.5h74.5c26.3 0 47.7-21.4 47.7-47.7z" fill="#FFAC33" p-id="5558"></path><path d="M838.8 893.4h-92.5l-0.4-18.1c-0.1-1.1-0.1-2-0.1-2.9 0-76.2 62-138.2 138.2-138.2 0.9 0 1.8 0 2.7 0.1l18.1 0.4 0.2 18.1v74.5c-0.1 36.5-29.8 66.1-66.2 66.1z m-54.9-36.8h54.9c16.1 0 29.3-13.1 29.3-29.3v-54.9c-43.3 6.9-77.4 41-84.2 84.2z" fill="#840000" p-id="5559"></path><path d="M736.936 581.14l45.607 45.608-45.607 45.608-45.608-45.608z" fill="#FF4633" p-id="5560"></path><path d="M736.9 690.8c-4.7 0-9.4-1.8-13-5.4l-45.6-45.6c-7.2-7.2-7.2-18.9 0-26.1l45.6-45.6c7.2-7.2 18.9-7.2 26.1 0l45.6 45.6c3.5 3.5 5.4 8.1 5.4 13s-1.9 9.6-5.4 13L750 685.4c-3.6 3.6-8.4 5.4-13.1 5.4z m-19.5-64.1l19.5 19.5 19.5-19.5-19.5-19.5-19.5 19.5z" fill="#840000" p-id="5561"></path><path d="M288.65 581.116l45.608 45.608-45.608 45.608-45.608-45.608z" fill="#FF4633" p-id="5562"></path><path d="M288.7 690.8c-4.7 0-9.4-1.8-13-5.4L230 639.8c-7.2-7.2-7.2-18.9 0-26.1l45.6-45.6c7.2-7.2 18.9-7.2 26.1 0l45.6 45.6c3.5 3.5 5.4 8.1 5.4 13s-1.9 9.6-5.4 13l-45.6 45.6c-3.6 3.7-8.3 5.5-13 5.5z m-19.6-64.1l19.5 19.5 19.5-19.5-19.5-19.5-19.5 19.5z" fill="#840000" p-id="5563"></path><path d="M737.1 172.5c-28.7 9.8-43.9 41-34.1 69.6s41 43.9 69.6 34.1c28.7-9.8 43.9-41 34.1-69.6-9.8-28.6-40.9-43.9-69.6-34.1z m34.4 63.5l-22.8 7.8c-2.3 0.8-4.7-0.4-5.5-2.7l-7.8-22.8c-0.8-2.3 0.4-4.7 2.7-5.5l22.8-7.8c2.3-0.8 4.7 0.4 5.5 2.7l7.8 22.8c0.8 2.2-0.4 4.7-2.7 5.5z" fill="#840000" p-id="5564"></path><path d="M606.7 98.5c-38.7 4.7-66.3 39.9-61.6 78.6 4.7 38.7 39.9 66.3 78.6 61.6 38.7-4.7 66.3-39.9 61.6-78.6s-39.9-66.3-78.6-61.6z m26.4 89.2l-30.8 3.7c-3 0.4-5.8-1.8-6.2-4.8l-3.7-30.8c-0.4-3 1.8-5.8 4.8-6.2l30.8-3.7c3-0.4 5.8 1.8 6.2 4.8l3.7 30.8c0.4 3-1.7 5.8-4.8 6.2z" fill="#840000" p-id="5565"></path></svg>