<svg width="40" height="40" viewBox="0 0 40 40" fill="none" xmlns="http://www.w3.org/2000/svg">
<g id="game-icons:magic-swirl">
<path id="Vector" d="M19.3586 1.46359C10.7786 1.37468 1.55263 7.57343 1.54138 19.1039L3.21349 15.0887C2.47248 20.7355 2.60802 26.5915 6.24396 30.9091L2.98435 29.4809C6.04998 34.9319 12.8541 36.5884 18.6761 36.7082C9.69607 33.5859 5.30232 26.7404 4.9931 19.2572C4.46794 2.71187 25.357 2.24984 31.6165 13.3377C31.3496 11.8148 30.9429 10.3356 30.3964 8.95406C36.4437 15.9193 35.0286 25.7412 28.7331 28.7225C26.8386 29.0311 24.9104 29.6647 23.9711 30.2069C19.397 32.8477 23.4812 40.0925 28.1293 37.4091C28.8668 36.9833 29.9577 36.0573 30.9804 34.9597C36.0085 30.3097 38.6444 25.7222 38.2544 20.1987C37.745 22.4722 36.7564 24.7225 35.4714 26.8146C40.4056 15.3441 36.0929 6.1982 24.1559 3.27132C25.101 3.72718 25.9921 4.33617 26.8022 5.09632C22.3167 3.2407 16.5583 3.32914 12.2019 5.37015C14.3946 3.32328 17.2626 1.95375 20.1863 1.49187C19.9113 1.47588 19.6353 1.46645 19.3584 1.46359H19.3586ZM17.8164 13.9794L16.2661 21.8361C16.0351 22.1337 15.8255 22.3714 15.5604 22.6126L13.5536 18.777L11.7797 19.7091L14.2305 24.4704C14.5805 25.3668 15.0133 26.086 15.4151 26.6988C17.6075 30.0428 20.4578 29.4529 22.8606 27.4453L29.6793 23.66L28.6864 21.9023L23.5195 24.7883C23.401 24.5419 23.2643 24.2764 23.1245 24.0453L28.4228 18.9703L27.0525 17.5098L21.8595 22.4912C21.6754 22.3101 21.5284 22.1375 21.331 21.9802L24.8532 15.8798L23.0772 14.8543L19.494 20.9712C19.1979 20.8689 18.8909 20.7994 18.5882 20.7568L19.8113 14.3587L17.8165 13.9794L17.8164 13.9794Z" fill="black"/>
</g>
</svg>
